<mxfile host="app.diagrams.net" modified="2024-05-07T13:50:26.881Z" agent="Mozilla/5.0 (Windows NT 10.0; Win64; x64; rv:125.0) Gecko/20100101 Firefox/125.0" etag="5H8wbkQ4ViIP_Z93LeZM" version="24.3.1" type="google">
  <diagram name="PÃ¡gina-1" id="qi5QB81KDscY9ikEkPCv">
    <mxGraphModel grid="1" page="1" gridSize="10" guides="1" tooltips="1" connect="1" arrows="1" fold="1" pageScale="0.5" pageWidth="827" pageHeight="1169" math="0" shadow="0">
      <root>
        <mxCell id="0" />
        <mxCell id="1" parent="0" />
        <mxCell id="GUfL9EUCw7rr8f97CWck-1" value="Filial" style="swimlane;childLayout=stackLayout;horizontal=1;startSize=50;horizontalStack=0;rounded=1;fontSize=14;fontStyle=0;strokeWidth=2;resizeParent=0;resizeLast=1;shadow=0;dashed=0;align=center;arcSize=4;whiteSpace=wrap;html=1;" vertex="1" parent="1">
          <mxGeometry x="1030" y="410" width="170" height="210" as="geometry" />
        </mxCell>
        <mxCell id="GUfL9EUCw7rr8f97CWck-2" value="&lt;div&gt;id_filial-INT-NN-PK&lt;/div&gt;&lt;div&gt;id_endereco-&lt;span style=&quot;background-color: initial;&quot;&gt;INT-NN-FK&lt;/span&gt;&lt;/div&gt;&lt;div&gt;id_email-&lt;span style=&quot;background-color: initial;&quot;&gt;INT-NN-FK&lt;/span&gt;&lt;/div&gt;&lt;div&gt;id_fone-&lt;span style=&quot;background-color: initial;&quot;&gt;INT-NN-FK&lt;/span&gt;&lt;/div&gt;&lt;div&gt;nome-VARCHAR(100)-NN&lt;/div&gt;&lt;div&gt;&lt;div&gt;cnpj-VARCHAR(14)-NN&lt;/div&gt;&lt;/div&gt;" style="align=left;strokeColor=none;fillColor=none;spacingLeft=4;fontSize=12;verticalAlign=top;resizable=0;rotatable=0;part=1;html=1;" vertex="1" parent="GUfL9EUCw7rr8f97CWck-1">
          <mxGeometry y="50" width="170" height="160" as="geometry" />
        </mxCell>
        <mxCell id="GUfL9EUCw7rr8f97CWck-16" value="&lt;span style=&quot;font-size: 12px; text-align: left; text-wrap: nowrap;&quot;&gt;Funcionario&lt;/span&gt;" style="swimlane;childLayout=stackLayout;horizontal=1;startSize=50;horizontalStack=0;rounded=1;fontSize=14;fontStyle=0;strokeWidth=2;resizeParent=0;resizeLast=1;shadow=0;dashed=0;align=center;arcSize=4;whiteSpace=wrap;html=1;" vertex="1" parent="1">
          <mxGeometry x="860" y="690" width="210" height="240" as="geometry" />
        </mxCell>
        <mxCell id="GUfL9EUCw7rr8f97CWck-17" value="&lt;div&gt;&lt;span style=&quot;background-color: initial;&quot;&gt;id_funcionario-INT-NN-PK&lt;/span&gt;&lt;br&gt;&lt;/div&gt;&lt;div&gt;id_status-&lt;span style=&quot;background-color: initial;&quot;&gt;INT-NN-FK&lt;/span&gt;&lt;/div&gt;&lt;div&gt;id_filial-&lt;span style=&quot;background-color: initial;&quot;&gt;INT-NN-FK&lt;/span&gt;&lt;/div&gt;&lt;div&gt;id_endereco-&lt;span style=&quot;background-color: initial;&quot;&gt;INT-NN-FK&lt;/span&gt;&lt;/div&gt;&lt;div&gt;id_email-&lt;span style=&quot;background-color: initial;&quot;&gt;INT-NN-FK&lt;/span&gt;&lt;/div&gt;&lt;div&gt;id_fone-&lt;span style=&quot;background-color: initial;&quot;&gt;INT-NN-FK&lt;/span&gt;&lt;/div&gt;&lt;div&gt;nome_funcionario-VARCHAR(200)-NN&lt;/div&gt;&lt;div&gt;data_admissao-DATE-NN&lt;/div&gt;&lt;div&gt;data_demissao-DATE-N&lt;/div&gt;&lt;div&gt;departamento-VARCHAR(200)-NN&lt;/div&gt;&lt;div&gt;funcao-VARCHAR(200)-NN&lt;/div&gt;&lt;div&gt;senha-INT-NN&lt;/div&gt;" style="align=left;strokeColor=none;fillColor=none;spacingLeft=4;fontSize=12;verticalAlign=top;resizable=0;rotatable=0;part=1;html=1;" vertex="1" parent="GUfL9EUCw7rr8f97CWck-16">
          <mxGeometry y="50" width="210" height="190" as="geometry" />
        </mxCell>
        <mxCell id="GUfL9EUCw7rr8f97CWck-22" value="Tipo_Atendimento" style="swimlane;childLayout=stackLayout;horizontal=1;startSize=50;horizontalStack=0;rounded=1;fontSize=14;fontStyle=0;strokeWidth=2;resizeParent=0;resizeLast=1;shadow=0;dashed=0;align=center;arcSize=4;whiteSpace=wrap;html=1;" vertex="1" parent="1">
          <mxGeometry x="-450" y="530" width="280" height="160" as="geometry" />
        </mxCell>
        <mxCell id="GUfL9EUCw7rr8f97CWck-23" value="&lt;div&gt;id_tipo_atendimento&lt;span style=&quot;background-color: initial;&quot;&gt;-INT-NN-PK&lt;/span&gt;&lt;/div&gt;&lt;div&gt;descricao_tipo_atendimento-VARCHAR(100)-NN&lt;/div&gt;&lt;div&gt;&lt;br&gt;&lt;/div&gt;" style="align=left;strokeColor=none;fillColor=none;spacingLeft=4;fontSize=12;verticalAlign=top;resizable=0;rotatable=0;part=1;html=1;" vertex="1" parent="GUfL9EUCw7rr8f97CWck-22">
          <mxGeometry y="50" width="280" height="110" as="geometry" />
        </mxCell>
        <mxCell id="GUfL9EUCw7rr8f97CWck-24" value="&lt;span style=&quot;font-size: 12px; text-align: left; text-wrap: nowrap;&quot;&gt;OS_Servico&lt;/span&gt;" style="swimlane;childLayout=stackLayout;horizontal=1;startSize=50;horizontalStack=0;rounded=1;fontSize=14;fontStyle=0;strokeWidth=2;resizeParent=0;resizeLast=1;shadow=0;dashed=0;align=center;arcSize=4;whiteSpace=wrap;html=1;" vertex="1" parent="1">
          <mxGeometry x="690" y="40" width="160" height="160" as="geometry" />
        </mxCell>
        <mxCell id="GUfL9EUCw7rr8f97CWck-25" value="&lt;div&gt;id_osservico-INT-NN-PK&lt;/div&gt;&lt;div&gt;id_os-INT-NN-FK&lt;/div&gt;&lt;div&gt;descricao-VARHAR(100)-N&lt;/div&gt;&lt;div&gt;valor-FLOAT(6,2)-NN&lt;/div&gt;&lt;div&gt;&lt;br&gt;&lt;/div&gt;" style="align=left;strokeColor=none;fillColor=none;spacingLeft=4;fontSize=12;verticalAlign=top;resizable=0;rotatable=0;part=1;html=1;" vertex="1" parent="GUfL9EUCw7rr8f97CWck-24">
          <mxGeometry y="50" width="160" height="110" as="geometry" />
        </mxCell>
        <mxCell id="GUfL9EUCw7rr8f97CWck-26" value="OS" style="swimlane;childLayout=stackLayout;horizontal=1;startSize=50;horizontalStack=0;rounded=1;fontSize=14;fontStyle=0;strokeWidth=2;resizeParent=0;resizeLast=1;shadow=0;dashed=0;align=center;arcSize=4;whiteSpace=wrap;html=1;" vertex="1" parent="1">
          <mxGeometry x="370" y="160" width="230" height="400" as="geometry" />
        </mxCell>
        <mxCell id="GUfL9EUCw7rr8f97CWck-27" value="&lt;div style=&quot;font-size: 11px;&quot;&gt;&lt;font style=&quot;font-size: 11px;&quot;&gt;&lt;span style=&quot;background-color: initial;&quot;&gt;id_os-INT-NN-PK&lt;/span&gt;&lt;br&gt;&lt;/font&gt;&lt;/div&gt;&lt;div style=&quot;font-size: 11px;&quot;&gt;&lt;font style=&quot;font-size: 11px;&quot;&gt;id_cliente-INT-NN-FK&lt;/font&gt;&lt;/div&gt;&lt;div style=&quot;font-size: 11px;&quot;&gt;&lt;font style=&quot;font-size: 11px;&quot;&gt;id_enderecobusca-INT-NN-FK&lt;/font&gt;&lt;/div&gt;&lt;div style=&quot;font-size: 11px;&quot;&gt;&lt;font style=&quot;font-size: 11px;&quot;&gt;id_enderecoentrega-INT-NN-FK&lt;/font&gt;&lt;/div&gt;&lt;div style=&quot;font-size: 11px;&quot;&gt;&lt;font style=&quot;font-size: 11px;&quot;&gt;id_tipo_atendimento-INT-NN-FK&lt;/font&gt;&lt;/div&gt;&lt;font style=&quot;font-size: 11px;&quot;&gt;id_observacao-INT-N-FK&lt;br&gt;&lt;/font&gt;&lt;div style=&quot;font-size: 11px;&quot;&gt;&lt;font style=&quot;font-size: 11px;&quot;&gt;id_status-INT-NN-FK&lt;/font&gt;&lt;/div&gt;&lt;div style=&quot;font-size: 11px;&quot;&gt;&lt;div&gt;&lt;font style=&quot;font-size: 11px;&quot;&gt;id_filial-INT-NN-FK&lt;/font&gt;&lt;/div&gt;&lt;div&gt;&lt;div&gt;&lt;font style=&quot;font-size: 11px;&quot;&gt;id_planopagamento-INT-NN-FK&lt;/font&gt;&lt;/div&gt;&lt;div&gt;&lt;font style=&quot;font-size: 11px;&quot;&gt;id_fechamento-INT-N-FK&lt;/font&gt;&lt;/div&gt;&lt;div&gt;&lt;font style=&quot;font-size: 11px;&quot;&gt;id_exclusao-INT-N-FK&lt;/font&gt;&lt;/div&gt;&lt;/div&gt;&lt;/div&gt;&lt;div style=&quot;font-size: 11px;&quot;&gt;&lt;font style=&quot;font-size: 11px;&quot;&gt;id_acessorio-INT-N-FK&lt;/font&gt;&lt;/div&gt;&lt;div style=&quot;font-size: 11px;&quot;&gt;&lt;font style=&quot;font-size: 11px;&quot;&gt;descricao_problema-VARCHAR(1000)-NN&lt;/font&gt;&lt;/div&gt;&lt;div style=&quot;font-size: 11px;&quot;&gt;&lt;font style=&quot;font-size: 11px;&quot;&gt;descricao_OS-VARCHAR(100)-NN&lt;/font&gt;&lt;/div&gt;&lt;div style=&quot;font-size: 11px;&quot;&gt;&lt;font style=&quot;font-size: 11px;&quot;&gt;data_abertura-DATE-NN&lt;/font&gt;&lt;/div&gt;&lt;div style=&quot;font-size: 11px;&quot;&gt;&lt;font style=&quot;font-size: 11px;&quot;&gt;data_compra-DATE-N&lt;/font&gt;&lt;/div&gt;&lt;div style=&quot;font-size: 11px;&quot;&gt;&lt;font style=&quot;font-size: 11px;&quot;&gt;data_garantia-DATE-N&lt;/font&gt;&lt;/div&gt;&lt;div style=&quot;font-size: 11px;&quot;&gt;&lt;font style=&quot;font-size: 11px;&quot;&gt;data_oficina-DATE-N&lt;/font&gt;&lt;/div&gt;&lt;div style=&quot;font-size: 11px;&quot;&gt;&lt;font style=&quot;font-size: 11px;&quot;&gt;serie-INT-NN&lt;/font&gt;&lt;/div&gt;&lt;div style=&quot;font-size: 11px;&quot;&gt;&lt;font style=&quot;font-size: 11px;&quot;&gt;especificacao-VARCHAR(100)-N&lt;/font&gt;&lt;/div&gt;&lt;div style=&quot;font-size: 11px;&quot;&gt;&lt;div&gt;&lt;div&gt;&lt;font style=&quot;font-size: 11px;&quot;&gt;valor_mo-FLOAT(6,2)-N&lt;/font&gt;&lt;/div&gt;&lt;div&gt;&lt;font style=&quot;font-size: 11px;&quot;&gt;valor_peca-FLOAT(6,2)-N&lt;/font&gt;&lt;/div&gt;&lt;div&gt;&lt;font style=&quot;font-size: 11px;&quot;&gt;valor_desconto-FLOAT(6,2)-N&lt;/font&gt;&lt;/div&gt;&lt;div&gt;&lt;font style=&quot;font-size: 11px;&quot;&gt;valor_total-FLOAT(6,2)-N&lt;/font&gt;&lt;/div&gt;&lt;div&gt;&lt;font style=&quot;font-size: 11px;&quot;&gt;&lt;br&gt;&lt;br&gt;&lt;/font&gt;&lt;/div&gt;&lt;/div&gt;&lt;/div&gt;" style="align=left;strokeColor=none;fillColor=none;spacingLeft=4;fontSize=12;verticalAlign=top;resizable=0;rotatable=0;part=1;html=1;" vertex="1" parent="GUfL9EUCw7rr8f97CWck-26">
          <mxGeometry y="50" width="230" height="350" as="geometry" />
        </mxCell>
        <mxCell id="GUfL9EUCw7rr8f97CWck-29" value="OS/Acessorio" style="swimlane;childLayout=stackLayout;horizontal=1;startSize=50;horizontalStack=0;rounded=1;fontSize=14;fontStyle=0;strokeWidth=2;resizeParent=0;resizeLast=1;shadow=0;dashed=0;align=center;arcSize=4;whiteSpace=wrap;html=1;" vertex="1" parent="1">
          <mxGeometry x="150" y="590" width="175" height="120" as="geometry" />
        </mxCell>
        <mxCell id="GUfL9EUCw7rr8f97CWck-30" value="&lt;div&gt;&lt;span style=&quot;background-color: initial;&quot;&gt;id_acessorio-INT-NN-FK&lt;/span&gt;&lt;/div&gt;&lt;div&gt;&lt;span style=&quot;background-color: initial;&quot;&gt;id_os-INT-NN-FK&lt;br&gt;&lt;/span&gt;&lt;/div&gt;" style="align=left;strokeColor=none;fillColor=none;spacingLeft=4;fontSize=12;verticalAlign=top;resizable=0;rotatable=0;part=1;html=1;" vertex="1" parent="GUfL9EUCw7rr8f97CWck-29">
          <mxGeometry y="50" width="175" height="70" as="geometry" />
        </mxCell>
        <mxCell id="GUfL9EUCw7rr8f97CWck-31" value="&lt;span style=&quot;font-size: 12px; text-align: left; text-wrap: nowrap;&quot;&gt;Observacao&lt;/span&gt;" style="swimlane;childLayout=stackLayout;horizontal=1;startSize=50;horizontalStack=0;rounded=1;fontSize=14;fontStyle=0;strokeWidth=2;resizeParent=0;resizeLast=1;shadow=0;dashed=0;align=center;arcSize=4;whiteSpace=wrap;html=1;" vertex="1" parent="1">
          <mxGeometry x="-10" y="-125" width="240" height="120" as="geometry" />
        </mxCell>
        <mxCell id="GUfL9EUCw7rr8f97CWck-32" value="&lt;div&gt;&lt;span style=&quot;background-color: initial;&quot;&gt;id_observacao-INT-NN-PK&lt;/span&gt;&lt;br&gt;&lt;/div&gt;&lt;div&gt;descricao_observacao-VARCHAR(100)-NN&lt;/div&gt;&lt;div&gt;forma_pagamento-VARCHAR(30)-NN&lt;/div&gt;" style="align=left;strokeColor=none;fillColor=none;spacingLeft=4;fontSize=12;verticalAlign=top;resizable=0;rotatable=0;part=1;html=1;" vertex="1" parent="GUfL9EUCw7rr8f97CWck-31">
          <mxGeometry y="50" width="240" height="70" as="geometry" />
        </mxCell>
        <mxCell id="GUfL9EUCw7rr8f97CWck-34" value="&lt;span style=&quot;font-size: 12px; text-align: left; text-wrap: nowrap;&quot;&gt;forma_pagamento&lt;/span&gt;" style="swimlane;childLayout=stackLayout;horizontal=1;startSize=50;horizontalStack=0;rounded=1;fontSize=14;fontStyle=0;strokeWidth=2;resizeParent=0;resizeLast=1;shadow=0;dashed=0;align=center;arcSize=4;whiteSpace=wrap;html=1;" vertex="1" parent="1">
          <mxGeometry x="10" y="920" width="280" height="120" as="geometry" />
        </mxCell>
        <mxCell id="GUfL9EUCw7rr8f97CWck-35" value="&lt;div&gt;&lt;span style=&quot;background-color: initial;&quot;&gt;id_forma_pagamento-INT-NN-PK&lt;/span&gt;&lt;/div&gt;&lt;div&gt;descricao_forma_pagamento-VARCHAR(100)-NN&lt;/div&gt;&lt;div&gt;&lt;br&gt;&lt;/div&gt;" style="align=left;strokeColor=none;fillColor=none;spacingLeft=4;fontSize=12;verticalAlign=top;resizable=0;rotatable=0;part=1;html=1;" vertex="1" parent="GUfL9EUCw7rr8f97CWck-34">
          <mxGeometry y="50" width="280" height="70" as="geometry" />
        </mxCell>
        <mxCell id="GUfL9EUCw7rr8f97CWck-36" value="Plano_Pagamento" style="swimlane;childLayout=stackLayout;horizontal=1;startSize=50;horizontalStack=0;rounded=1;fontSize=14;fontStyle=0;strokeWidth=2;resizeParent=0;resizeLast=1;shadow=0;dashed=0;align=center;arcSize=4;whiteSpace=wrap;html=1;" vertex="1" parent="1">
          <mxGeometry x="330" y="740" width="260" height="120" as="geometry" />
        </mxCell>
        <mxCell id="GUfL9EUCw7rr8f97CWck-37" value="&lt;div&gt;id_plano_pagamento-INT-NN-PK&lt;/div&gt;&lt;div&gt;descricao_plano_pagamento-VARHAR(1000)-N&lt;/div&gt;&lt;div&gt;parcelas-INT-NN&lt;/div&gt;&lt;div&gt;juros-INT-N&lt;/div&gt;" style="align=left;strokeColor=none;fillColor=none;spacingLeft=4;fontSize=12;verticalAlign=top;resizable=0;rotatable=0;part=1;html=1;" vertex="1" parent="GUfL9EUCw7rr8f97CWck-36">
          <mxGeometry y="50" width="260" height="70" as="geometry" />
        </mxCell>
        <mxCell id="GUfL9EUCw7rr8f97CWck-38" value="Marca" style="swimlane;childLayout=stackLayout;horizontal=1;startSize=50;horizontalStack=0;rounded=1;fontSize=14;fontStyle=0;strokeWidth=2;resizeParent=0;resizeLast=1;shadow=0;dashed=0;align=center;arcSize=4;whiteSpace=wrap;html=1;" vertex="1" parent="1">
          <mxGeometry x="1480" y="-130" width="190" height="120" as="geometry" />
        </mxCell>
        <mxCell id="GUfL9EUCw7rr8f97CWck-39" value="&lt;div&gt;id_marca&lt;span style=&quot;background-color: initial;&quot;&gt;-INT-NN-PK&lt;/span&gt;&lt;/div&gt;&lt;div&gt;descricao_marca-VARHAR(100)-N&lt;/div&gt;&lt;div&gt;principal-BOOLEAN-NN&lt;/div&gt;" style="align=left;strokeColor=none;fillColor=none;spacingLeft=4;fontSize=12;verticalAlign=top;resizable=0;rotatable=0;part=1;html=1;" vertex="1" parent="GUfL9EUCw7rr8f97CWck-38">
          <mxGeometry y="50" width="190" height="70" as="geometry" />
        </mxCell>
        <mxCell id="GUfL9EUCw7rr8f97CWck-40" value="Tipo_Produto" style="swimlane;childLayout=stackLayout;horizontal=1;startSize=50;horizontalStack=0;rounded=1;fontSize=14;fontStyle=0;strokeWidth=2;resizeParent=0;resizeLast=1;shadow=0;dashed=0;align=center;arcSize=4;whiteSpace=wrap;html=1;" vertex="1" parent="1">
          <mxGeometry x="770" y="-130" width="230" height="120" as="geometry" />
        </mxCell>
        <mxCell id="GUfL9EUCw7rr8f97CWck-41" value="&lt;div&gt;id_tipo_produto-INT-NN-PK&lt;/div&gt;&lt;div&gt;descricao_tipo_produto-VARHAR(100)-N&lt;/div&gt;&lt;div&gt;principal-BOOLEAN-NN&lt;br&gt;&lt;/div&gt;&lt;div&gt;&lt;br&gt;&lt;/div&gt;" style="align=left;strokeColor=none;fillColor=none;spacingLeft=4;fontSize=12;verticalAlign=top;resizable=0;rotatable=0;part=1;html=1;" vertex="1" parent="GUfL9EUCw7rr8f97CWck-40">
          <mxGeometry y="50" width="230" height="70" as="geometry" />
        </mxCell>
        <mxCell id="GUfL9EUCw7rr8f97CWck-44" value="Email" style="swimlane;childLayout=stackLayout;horizontal=1;startSize=50;horizontalStack=0;rounded=1;fontSize=14;fontStyle=0;strokeWidth=2;resizeParent=0;resizeLast=1;shadow=0;dashed=0;align=center;arcSize=4;whiteSpace=wrap;html=1;" vertex="1" parent="1">
          <mxGeometry x="-300" y="-125" width="170" height="120" as="geometry" />
        </mxCell>
        <mxCell id="GUfL9EUCw7rr8f97CWck-45" value="&lt;div&gt;id_email-INT-NN-PK&lt;/div&gt;&lt;div&gt;contato-varchar(100)-NN&lt;br&gt;&lt;/div&gt;&lt;div&gt;tipo_email-VARCHAR(30)-NN&lt;/div&gt;&lt;div&gt;email-VARCHAR(100)-NN&lt;/div&gt;" style="align=left;strokeColor=none;fillColor=none;spacingLeft=4;fontSize=12;verticalAlign=top;resizable=0;rotatable=0;part=1;html=1;" vertex="1" parent="GUfL9EUCw7rr8f97CWck-44">
          <mxGeometry y="50" width="170" height="70" as="geometry" />
        </mxCell>
        <mxCell id="GUfL9EUCw7rr8f97CWck-46" value="Fone" style="swimlane;childLayout=stackLayout;horizontal=1;startSize=50;horizontalStack=0;rounded=1;fontSize=14;fontStyle=0;strokeWidth=2;resizeParent=0;resizeLast=1;shadow=0;dashed=0;align=center;arcSize=4;whiteSpace=wrap;html=1;" vertex="1" parent="1">
          <mxGeometry x="-310" y="200" width="160" height="140" as="geometry" />
        </mxCell>
        <mxCell id="GUfL9EUCw7rr8f97CWck-47" value="&lt;div&gt;&lt;div&gt;id_fone-INT-NN-PK&lt;/div&gt;&lt;/div&gt;&lt;div&gt;tipo_fone-VARCHAR(30)-NN&lt;/div&gt;&lt;div&gt;numero-VARCHAR(11)-Nn&lt;/div&gt;&lt;div&gt;contato-VARCHAR(100)-N&lt;/div&gt;&lt;div&gt;&lt;br&gt;&lt;/div&gt;" style="align=left;strokeColor=none;fillColor=none;spacingLeft=4;fontSize=12;verticalAlign=top;resizable=0;rotatable=0;part=1;html=1;" vertex="1" parent="GUfL9EUCw7rr8f97CWck-46">
          <mxGeometry y="50" width="160" height="90" as="geometry" />
        </mxCell>
        <mxCell id="GUfL9EUCw7rr8f97CWck-50" value="Produto" style="swimlane;childLayout=stackLayout;horizontal=1;startSize=50;horizontalStack=0;rounded=1;fontSize=14;fontStyle=0;strokeWidth=2;resizeParent=0;resizeLast=1;shadow=0;dashed=0;align=center;arcSize=4;whiteSpace=wrap;html=1;" vertex="1" parent="1">
          <mxGeometry x="1600" y="315" width="210" height="275" as="geometry" />
        </mxCell>
        <mxCell id="GUfL9EUCw7rr8f97CWck-51" value="&lt;div&gt;id_produto-INT-NN-PK&lt;/div&gt;&lt;div&gt;id_modelo-INT-NN-FK&lt;br&gt;&lt;/div&gt;&lt;div&gt;descricao_produto-VARHAR(1000)-N&lt;/div&gt;&lt;div&gt;valor_custo-FLOAT(6,2)-NN&lt;/div&gt;&lt;div&gt;valor_venda-FLOAT(6,2)-NN&lt;/div&gt;&lt;div&gt;data_cadastro-DATE-NN&lt;/div&gt;&lt;div&gt;qt_minima-INT-NN&lt;/div&gt;&lt;div&gt;qt_estoque-INT-NN&lt;/div&gt;&lt;div&gt;fl_balcao-BOOLEAN-NN&lt;/div&gt;&lt;div&gt;fl_ativo-BOOLEAN-NN&lt;/div&gt;&lt;div&gt;codigo-INT-NN&lt;/div&gt;&lt;div&gt;unidade-VARCHAR(30)-NN&lt;/div&gt;&lt;div&gt;&lt;br&gt;&lt;/div&gt;" style="align=left;strokeColor=none;fillColor=none;spacingLeft=4;fontSize=12;verticalAlign=top;resizable=0;rotatable=0;part=1;html=1;" vertex="1" parent="GUfL9EUCw7rr8f97CWck-50">
          <mxGeometry y="50" width="210" height="225" as="geometry" />
        </mxCell>
        <mxCell id="GUfL9EUCw7rr8f97CWck-52" value="Cliente" style="swimlane;childLayout=stackLayout;horizontal=1;startSize=50;horizontalStack=0;rounded=1;fontSize=14;fontStyle=0;strokeWidth=2;resizeParent=0;resizeLast=1;shadow=0;dashed=0;align=center;arcSize=4;whiteSpace=wrap;html=1;" vertex="1" parent="1">
          <mxGeometry x="55" y="60" width="220" height="240" as="geometry" />
        </mxCell>
        <mxCell id="GUfL9EUCw7rr8f97CWck-53" value="&lt;div&gt;id_cliente-INT-NN-PK&lt;/div&gt;&lt;div&gt;&lt;div&gt;id_status-INT-NN-FK&lt;/div&gt;&lt;div&gt;id_endereÃ§o-INT-NN-FK&lt;/div&gt;&lt;div&gt;&lt;div&gt;id_email-&lt;span style=&quot;background-color: initial;&quot;&gt;INT-NN-FK&lt;/span&gt;&lt;/div&gt;&lt;div&gt;id_fone-&lt;span style=&quot;background-color: initial;&quot;&gt;INT-NN-FK&lt;/span&gt;&lt;/div&gt;&lt;/div&gt;&lt;/div&gt;&lt;div&gt;nome_cliente-VARCHAR(200)-NN&lt;/div&gt;&lt;div&gt;nome_fonetico-VARCHAR(200)-N&lt;/div&gt;&lt;div&gt;data_cadastro-DATE-NN&lt;/div&gt;&lt;div&gt;cpf-VARCHAR(14)-NN&lt;/div&gt;&lt;div&gt;cnpj-VARCHAR(14)-N&lt;/div&gt;&lt;div&gt;inscr_municipal-INT-N&lt;/div&gt;&lt;div&gt;data_atualizacao-DATE-NN&lt;/div&gt;" style="align=left;strokeColor=none;fillColor=none;spacingLeft=4;fontSize=12;verticalAlign=top;resizable=0;rotatable=0;part=1;html=1;" vertex="1" parent="GUfL9EUCw7rr8f97CWck-52">
          <mxGeometry y="50" width="220" height="190" as="geometry" />
        </mxCell>
        <mxCell id="GUfL9EUCw7rr8f97CWck-57" value="&lt;div&gt;Categoria&lt;/div&gt;" style="swimlane;childLayout=stackLayout;horizontal=1;startSize=50;horizontalStack=0;rounded=1;fontSize=14;fontStyle=0;strokeWidth=2;resizeParent=0;resizeLast=1;shadow=0;dashed=0;align=center;arcSize=4;whiteSpace=wrap;html=1;" vertex="1" parent="1">
          <mxGeometry x="1360" y="220" width="210" height="120" as="geometry" />
        </mxCell>
        <mxCell id="GUfL9EUCw7rr8f97CWck-58" value="&lt;div&gt;&lt;span style=&quot;background-color: initial;&quot;&gt;id_categoria&lt;/span&gt;-INT-NN-PK&lt;/div&gt;&lt;div&gt;descricao_categoriaVARHAR(100)-NN&lt;/div&gt;" style="align=left;strokeColor=none;fillColor=none;spacingLeft=4;fontSize=12;verticalAlign=top;resizable=0;rotatable=0;part=1;html=1;" vertex="1" parent="GUfL9EUCw7rr8f97CWck-57">
          <mxGeometry y="50" width="210" height="70" as="geometry" />
        </mxCell>
        <mxCell id="GUfL9EUCw7rr8f97CWck-59" value="&lt;span style=&quot;font-size: 12px; text-align: left; text-wrap: nowrap;&quot;&gt;Modelo&lt;/span&gt;" style="swimlane;childLayout=stackLayout;horizontal=1;startSize=50;horizontalStack=0;rounded=1;fontSize=14;fontStyle=0;strokeWidth=2;resizeParent=0;resizeLast=1;shadow=0;dashed=0;align=center;arcSize=4;whiteSpace=wrap;html=1;" vertex="1" parent="1">
          <mxGeometry x="1120" y="-130" width="210" height="120" as="geometry" />
        </mxCell>
        <mxCell id="GUfL9EUCw7rr8f97CWck-60" value="&lt;div&gt;&lt;span style=&quot;background-color: initial;&quot;&gt;id_modelo-INT-NN-PK&lt;/span&gt;&lt;br&gt;&lt;/div&gt;&lt;div&gt;id_marca-INT-NN-FK&lt;/div&gt;&lt;div&gt;id_tipo_produto-INT-FK&lt;/div&gt;&lt;div&gt;descricao_modelo-VARHAR(100)-N&lt;/div&gt;&lt;div&gt;&lt;br&gt;&lt;/div&gt;&lt;div&gt;&lt;br&gt;&lt;/div&gt;" style="align=left;strokeColor=none;fillColor=none;spacingLeft=4;fontSize=12;verticalAlign=top;resizable=0;rotatable=0;part=1;html=1;" vertex="1" parent="GUfL9EUCw7rr8f97CWck-59">
          <mxGeometry y="50" width="210" height="70" as="geometry" />
        </mxCell>
        <mxCell id="GUfL9EUCw7rr8f97CWck-61" value="&lt;span style=&quot;font-size: 12px; text-align: left; text-wrap: nowrap;&quot;&gt;Endereco&lt;/span&gt;" style="swimlane;childLayout=stackLayout;horizontal=1;startSize=50;horizontalStack=0;rounded=1;fontSize=14;fontStyle=0;strokeWidth=2;resizeParent=0;resizeLast=1;shadow=0;dashed=0;align=center;arcSize=4;whiteSpace=wrap;html=1;" vertex="1" parent="1">
          <mxGeometry x="-380" y="-350" width="260" height="210" as="geometry" />
        </mxCell>
        <mxCell id="GUfL9EUCw7rr8f97CWck-62" value="&lt;div&gt;id_endereÃ§o-INT-NN-PK&lt;br&gt;&lt;/div&gt;&lt;div&gt;tipo_endereco-VARCHAR(100)-NN&lt;/div&gt;&lt;div&gt;endereco-VARCHAR(1000)-NN&lt;/div&gt;&lt;div&gt;complemento-VARCHAR(100)-NN&lt;/div&gt;&lt;div&gt;bairro-VARCHAR(100)-NN&lt;/div&gt;&lt;div&gt;cidade-VARCHAR(100)-NN&lt;/div&gt;&lt;div&gt;estado-VARCHAR(30)-NN&lt;/div&gt;&lt;div&gt;cep-VARCHAR(8)-NN&lt;/div&gt;&lt;div&gt;relacionamento_entidade-VARCHAR(100)-NN&lt;/div&gt;&lt;div&gt;observacao-VARCHAR(100)-N&lt;/div&gt;&lt;div&gt;&lt;br&gt;&lt;/div&gt;" style="align=left;strokeColor=none;fillColor=none;spacingLeft=4;fontSize=12;verticalAlign=top;resizable=0;rotatable=0;part=1;html=1;" vertex="1" parent="GUfL9EUCw7rr8f97CWck-61">
          <mxGeometry y="50" width="260" height="160" as="geometry" />
        </mxCell>
        <mxCell id="rghxRi4L2u9oOf768lQL-1" value="Servico" style="swimlane;childLayout=stackLayout;horizontal=1;startSize=50;horizontalStack=0;rounded=1;fontSize=14;fontStyle=0;strokeWidth=2;resizeParent=0;resizeLast=1;shadow=0;dashed=0;align=center;arcSize=4;whiteSpace=wrap;html=1;" vertex="1" parent="1">
          <mxGeometry x="1255" y="40" width="200" height="120" as="geometry" />
        </mxCell>
        <mxCell id="rghxRi4L2u9oOf768lQL-2" value="&lt;div&gt;&lt;span style=&quot;background-color: initial;&quot;&gt;id_servico&lt;/span&gt;-INT-NN-PK&lt;/div&gt;&lt;div&gt;descricao_servico-VARHAR(100)-N&lt;/div&gt;&lt;div&gt;valor_unitario-FLOAT(6,2)-NN&lt;/div&gt;&lt;div&gt;quantidade-INT-NN&lt;/div&gt;" style="align=left;strokeColor=none;fillColor=none;spacingLeft=4;fontSize=12;verticalAlign=top;resizable=0;rotatable=0;part=1;html=1;" vertex="1" parent="rghxRi4L2u9oOf768lQL-1">
          <mxGeometry y="50" width="200" height="70" as="geometry" />
        </mxCell>
        <mxCell id="ddGVAAA7YCfJVJd5zqxj-2" value="" style="fontSize=12;html=1;endArrow=none;endFill=0;rounded=0;exitX=1.004;exitY=0.091;exitDx=0;exitDy=0;entryX=-0.004;entryY=0.959;entryDx=0;entryDy=0;entryPerimeter=0;startArrow=none;startFill=0;exitPerimeter=0;" edge="1" parent="1" source="GUfL9EUCw7rr8f97CWck-22" target="GUfL9EUCw7rr8f97CWck-27">
          <mxGeometry width="100" height="100" relative="1" as="geometry">
            <mxPoint x="230" y="560" as="sourcePoint" />
            <mxPoint x="330" y="490" as="targetPoint" />
          </mxGeometry>
        </mxCell>
        <mxCell id="ddGVAAA7YCfJVJd5zqxj-3" value="" style="fontSize=12;html=1;endArrow=none;endFill=0;rounded=0;entryX=0;entryY=0;entryDx=0;entryDy=0;startArrow=none;startFill=0;" edge="1" parent="1" source="GUfL9EUCw7rr8f97CWck-53" target="GUfL9EUCw7rr8f97CWck-27">
          <mxGeometry width="100" height="100" relative="1" as="geometry">
            <mxPoint x="-30" y="292.5" as="sourcePoint" />
            <mxPoint x="350" y="287.5" as="targetPoint" />
          </mxGeometry>
        </mxCell>
        <mxCell id="ddGVAAA7YCfJVJd5zqxj-4" value="" style="fontSize=12;html=1;endArrow=none;endFill=0;rounded=0;entryX=1.016;entryY=0.625;entryDx=0;entryDy=0;exitX=0;exitY=1;exitDx=0;exitDy=0;startArrow=none;startFill=0;entryPerimeter=0;" edge="1" parent="1" source="oz-2ojxwUdqr7WUobjw_-34" target="GUfL9EUCw7rr8f97CWck-62">
          <mxGeometry width="100" height="100" relative="1" as="geometry">
            <mxPoint x="560" y="220" as="sourcePoint" />
            <mxPoint x="790" y="240" as="targetPoint" />
            <Array as="points">
              <mxPoint x="160" y="40" />
              <mxPoint x="-40" y="40" />
              <mxPoint x="-40" y="-200" />
            </Array>
          </mxGeometry>
        </mxCell>
        <mxCell id="ddGVAAA7YCfJVJd5zqxj-5" value="" style="fontSize=12;html=1;endArrow=none;endFill=0;rounded=0;entryX=0.75;entryY=0;entryDx=0;entryDy=0;exitX=0.084;exitY=0.984;exitDx=0;exitDy=0;startArrow=none;startFill=0;exitPerimeter=0;" edge="1" parent="1" source="GUfL9EUCw7rr8f97CWck-2" target="GUfL9EUCw7rr8f97CWck-16">
          <mxGeometry width="100" height="100" relative="1" as="geometry">
            <mxPoint x="1094.7499999999995" y="621.2800000000002" as="sourcePoint" />
            <mxPoint x="1094.5900000000001" y="790" as="targetPoint" />
          </mxGeometry>
        </mxCell>
        <mxCell id="ddGVAAA7YCfJVJd5zqxj-7" value="" style="fontSize=12;html=1;endArrow=none;endFill=0;rounded=0;entryX=0;entryY=0;entryDx=0;entryDy=0;exitX=1;exitY=0;exitDx=0;exitDy=0;startArrow=none;startFill=0;" edge="1" parent="1" source="GUfL9EUCw7rr8f97CWck-60" target="GUfL9EUCw7rr8f97CWck-39">
          <mxGeometry width="100" height="100" relative="1" as="geometry">
            <mxPoint x="530" y="329.52" as="sourcePoint" />
            <mxPoint x="810" y="329.52" as="targetPoint" />
          </mxGeometry>
        </mxCell>
        <mxCell id="ddGVAAA7YCfJVJd5zqxj-8" value="" style="fontSize=12;html=1;endArrow=none;endFill=0;rounded=0;entryX=0;entryY=0;entryDx=0;entryDy=0;exitX=1;exitY=0;exitDx=0;exitDy=0;startArrow=none;startFill=0;" edge="1" parent="1" source="GUfL9EUCw7rr8f97CWck-41" target="GUfL9EUCw7rr8f97CWck-60">
          <mxGeometry width="100" height="100" relative="1" as="geometry">
            <mxPoint x="790" y="210" as="sourcePoint" />
            <mxPoint x="680" y="200" as="targetPoint" />
          </mxGeometry>
        </mxCell>
        <mxCell id="ddGVAAA7YCfJVJd5zqxj-10" value="" style="fontSize=12;html=1;endArrow=none;endFill=0;rounded=0;entryX=0;entryY=0.25;entryDx=0;entryDy=0;exitX=1.008;exitY=0.713;exitDx=0;exitDy=0;exitPerimeter=0;startArrow=none;startFill=0;" edge="1" parent="1" source="GUfL9EUCw7rr8f97CWck-27" target="GUfL9EUCw7rr8f97CWck-1">
          <mxGeometry width="100" height="100" relative="1" as="geometry">
            <mxPoint x="470" y="750" as="sourcePoint" />
            <mxPoint x="760" y="760" as="targetPoint" />
          </mxGeometry>
        </mxCell>
        <mxCell id="2B65WVf7o-zjYW6nSgnX-1" value="" style="endArrow=none;html=1;rounded=0;exitX=0;exitY=1;exitDx=0;exitDy=0;startArrow=none;startFill=0;endFill=0;" edge="1" parent="1" source="GUfL9EUCw7rr8f97CWck-53">
          <mxGeometry width="50" height="50" relative="1" as="geometry">
            <mxPoint x="300" y="140" as="sourcePoint" />
            <mxPoint x="-150" y="300" as="targetPoint" />
          </mxGeometry>
        </mxCell>
        <mxCell id="2B65WVf7o-zjYW6nSgnX-2" value="" style="endArrow=none;html=1;rounded=0;entryX=-0.012;entryY=0.049;entryDx=0;entryDy=0;startArrow=none;startFill=0;endFill=0;exitX=1;exitY=0;exitDx=0;exitDy=0;entryPerimeter=0;" edge="1" parent="1" source="GUfL9EUCw7rr8f97CWck-32" target="GUfL9EUCw7rr8f97CWck-26">
          <mxGeometry width="50" height="50" relative="1" as="geometry">
            <mxPoint x="300" y="860" as="sourcePoint" />
            <mxPoint x="350" y="810" as="targetPoint" />
            <Array as="points">
              <mxPoint x="280" y="-75" />
              <mxPoint x="280" y="180" />
            </Array>
          </mxGeometry>
        </mxCell>
        <mxCell id="2B65WVf7o-zjYW6nSgnX-5" value="" style="endArrow=none;html=1;rounded=0;entryX=0.5;entryY=1;entryDx=0;entryDy=0;exitX=0.596;exitY=-0.018;exitDx=0;exitDy=0;startArrow=none;startFill=0;endFill=0;exitPerimeter=0;" edge="1" parent="1" source="GUfL9EUCw7rr8f97CWck-36" target="GUfL9EUCw7rr8f97CWck-27">
          <mxGeometry width="50" height="50" relative="1" as="geometry">
            <mxPoint x="620" y="430" as="sourcePoint" />
            <mxPoint x="540" y="783.8461538461538" as="targetPoint" />
          </mxGeometry>
        </mxCell>
        <mxCell id="2B65WVf7o-zjYW6nSgnX-6" value="" style="endArrow=none;html=1;rounded=0;entryX=0.5;entryY=0;entryDx=0;entryDy=0;endFill=0;startArrow=none;startFill=0;exitX=0.5;exitY=1;exitDx=0;exitDy=0;" edge="1" parent="1" source="GUfL9EUCw7rr8f97CWck-37" target="mPiWdBAjLxL3O_C_GbBa-6">
          <mxGeometry width="50" height="50" relative="1" as="geometry">
            <mxPoint x="500" y="890" as="sourcePoint" />
            <mxPoint x="670" y="380" as="targetPoint" />
          </mxGeometry>
        </mxCell>
        <mxCell id="2B65WVf7o-zjYW6nSgnX-7" value="" style="endArrow=none;html=1;rounded=0;entryX=0;entryY=0;entryDx=0;entryDy=0;startArrow=none;startFill=0;endFill=0;" edge="1" parent="1" source="GUfL9EUCw7rr8f97CWck-45" target="GUfL9EUCw7rr8f97CWck-53">
          <mxGeometry width="50" height="50" relative="1" as="geometry">
            <mxPoint x="300" y="-30" as="sourcePoint" />
            <mxPoint x="350" y="-80" as="targetPoint" />
            <Array as="points">
              <mxPoint x="-215" y="110" />
            </Array>
          </mxGeometry>
        </mxCell>
        <mxCell id="2B65WVf7o-zjYW6nSgnX-9" value="" style="endArrow=none;html=1;rounded=0;exitX=0.813;exitY=0.003;exitDx=0;exitDy=0;entryX=0;entryY=0;entryDx=0;entryDy=0;exitPerimeter=0;endFill=0;startArrow=none;startFill=0;" edge="1" parent="1" source="GUfL9EUCw7rr8f97CWck-26" target="GUfL9EUCw7rr8f97CWck-25">
          <mxGeometry width="50" height="50" relative="1" as="geometry">
            <mxPoint x="500" y="-70" as="sourcePoint" />
            <mxPoint x="630" y="340" as="targetPoint" />
            <Array as="points">
              <mxPoint x="557" y="90" />
            </Array>
          </mxGeometry>
        </mxCell>
        <mxCell id="2B65WVf7o-zjYW6nSgnX-10" value="" style="endArrow=none;html=1;rounded=0;entryX=1;entryY=0;entryDx=0;entryDy=0;endFill=0;startArrow=none;startFill=0;exitX=-0.005;exitY=0.417;exitDx=0;exitDy=0;exitPerimeter=0;" edge="1" parent="1" source="mPiWdBAjLxL3O_C_GbBa-1" target="GUfL9EUCw7rr8f97CWck-25">
          <mxGeometry width="50" height="50" relative="1" as="geometry">
            <mxPoint x="940" y="140" as="sourcePoint" />
            <mxPoint x="860" y="310" as="targetPoint" />
          </mxGeometry>
        </mxCell>
        <mxCell id="2B65WVf7o-zjYW6nSgnX-11" value="" style="endArrow=none;html=1;rounded=0;entryX=0.167;entryY=1;entryDx=0;entryDy=0;startArrow=none;startFill=0;endFill=0;entryPerimeter=0;exitX=-0.006;exitY=0.439;exitDx=0;exitDy=0;exitPerimeter=0;" edge="1" parent="1" source="mPiWdBAjLxL3O_C_GbBa-27" target="oz-2ojxwUdqr7WUobjw_-24">
          <mxGeometry width="50" height="50" relative="1" as="geometry">
            <mxPoint x="1310" y="518" as="sourcePoint" />
            <mxPoint x="20" y="550" as="targetPoint" />
          </mxGeometry>
        </mxCell>
        <mxCell id="2B65WVf7o-zjYW6nSgnX-13" value="" style="endArrow=none;html=1;rounded=0;entryX=0.128;entryY=0.996;entryDx=0;entryDy=0;entryPerimeter=0;exitX=1;exitY=0;exitDx=0;exitDy=0;startArrow=none;startFill=0;endFill=0;edgeStyle=orthogonalEdgeStyle;" edge="1" parent="1" source="GUfL9EUCw7rr8f97CWck-30" target="GUfL9EUCw7rr8f97CWck-27">
          <mxGeometry width="50" height="50" relative="1" as="geometry">
            <mxPoint x="530" y="760" as="sourcePoint" />
            <mxPoint x="580" y="710" as="targetPoint" />
            <Array as="points">
              <mxPoint x="400" y="640" />
              <mxPoint x="400" y="600" />
            </Array>
          </mxGeometry>
        </mxCell>
        <mxCell id="ddGVAAA7YCfJVJd5zqxj-12" value="" style="endArrow=none;html=1;rounded=0;entryX=0;entryY=0;entryDx=0;entryDy=0;endFill=0;exitX=0.1;exitY=1.007;exitDx=0;exitDy=0;startArrow=none;startFill=0;exitPerimeter=0;" edge="1" parent="1" source="oz-2ojxwUdqr7WUobjw_-7" target="ddGVAAA7YCfJVJd5zqxj-39">
          <mxGeometry width="50" height="50" relative="1" as="geometry">
            <mxPoint x="520" y="150" as="sourcePoint" />
            <mxPoint x="550" y="793.8461538461538" as="targetPoint" />
            <Array as="points">
              <mxPoint x="460" y="-80" />
            </Array>
          </mxGeometry>
        </mxCell>
        <mxCell id="ddGVAAA7YCfJVJd5zqxj-18" value="&lt;span style=&quot;font-size: 12px; text-align: left; text-wrap: nowrap;&quot;&gt;Status&lt;/span&gt;" style="swimlane;childLayout=stackLayout;horizontal=1;startSize=50;horizontalStack=0;rounded=1;fontSize=14;fontStyle=0;strokeWidth=2;resizeParent=0;resizeLast=1;shadow=0;dashed=0;align=center;arcSize=4;whiteSpace=wrap;html=1;" vertex="1" parent="1">
          <mxGeometry x="-30" y="360" width="210" height="120" as="geometry" />
        </mxCell>
        <mxCell id="ddGVAAA7YCfJVJd5zqxj-19" value="&lt;div&gt;&lt;span style=&quot;background-color: initial;&quot;&gt;id_status-INT-NN-PK&lt;/span&gt;&lt;br&gt;&lt;/div&gt;&lt;div&gt;descricao_status-VARCHAR(100)-NN&lt;/div&gt;&lt;div&gt;tipo-VARCHAR(100)-NN&lt;/div&gt;" style="align=left;strokeColor=none;fillColor=none;spacingLeft=4;fontSize=12;verticalAlign=top;resizable=0;rotatable=0;part=1;html=1;" vertex="1" parent="ddGVAAA7YCfJVJd5zqxj-18">
          <mxGeometry y="50" width="210" height="70" as="geometry" />
        </mxCell>
        <mxCell id="ddGVAAA7YCfJVJd5zqxj-20" value="Fechamento" style="swimlane;childLayout=stackLayout;horizontal=1;startSize=50;horizontalStack=0;rounded=1;fontSize=14;fontStyle=0;strokeWidth=2;resizeParent=0;resizeLast=1;shadow=0;dashed=0;align=center;arcSize=4;whiteSpace=wrap;html=1;" vertex="1" parent="1">
          <mxGeometry x="700" y="480" width="250" height="120" as="geometry" />
        </mxCell>
        <mxCell id="ddGVAAA7YCfJVJd5zqxj-21" value="&lt;div&gt;id_fechamento-INT-NN-PK&lt;/div&gt;&lt;div&gt;id_funcionÃ¡rio-INT-NN-FK&lt;/div&gt;&lt;div&gt;data_fechamento-DATE-NN&lt;/div&gt;&lt;div&gt;observacao_fechamento-VARCHAR(200)-N&lt;/div&gt;&lt;div&gt;&lt;br&gt;&lt;/div&gt;" style="align=left;strokeColor=none;fillColor=none;spacingLeft=4;fontSize=12;verticalAlign=top;resizable=0;rotatable=0;part=1;html=1;" vertex="1" parent="ddGVAAA7YCfJVJd5zqxj-20">
          <mxGeometry y="50" width="250" height="70" as="geometry" />
        </mxCell>
        <mxCell id="ddGVAAA7YCfJVJd5zqxj-22" value="" style="fontSize=12;html=1;endArrow=none;endFill=0;rounded=0;entryX=0;entryY=0;entryDx=0;entryDy=0;exitX=0.998;exitY=0.929;exitDx=0;exitDy=0;exitPerimeter=0;startArrow=none;startFill=0;" edge="1" parent="1" source="GUfL9EUCw7rr8f97CWck-27" target="ddGVAAA7YCfJVJd5zqxj-21">
          <mxGeometry width="100" height="100" relative="1" as="geometry">
            <mxPoint x="540" y="480" as="sourcePoint" />
            <mxPoint x="820" y="480" as="targetPoint" />
          </mxGeometry>
        </mxCell>
        <mxCell id="ddGVAAA7YCfJVJd5zqxj-24" value="ExclusÃ£o" style="swimlane;childLayout=stackLayout;horizontal=1;startSize=50;horizontalStack=0;rounded=1;fontSize=14;fontStyle=0;strokeWidth=2;resizeParent=0;resizeLast=1;shadow=0;dashed=0;align=center;arcSize=4;whiteSpace=wrap;html=1;" vertex="1" parent="1">
          <mxGeometry x="610" y="850" width="160" height="120" as="geometry" />
        </mxCell>
        <mxCell id="ddGVAAA7YCfJVJd5zqxj-25" value="&lt;div&gt;id_exclusao-INT-NN-PK&lt;/div&gt;&lt;div&gt;id_funcionario-INT-NN-FK&lt;/div&gt;&lt;div&gt;data_exclusao-DATE-NN&lt;/div&gt;" style="align=left;strokeColor=none;fillColor=none;spacingLeft=4;fontSize=12;verticalAlign=top;resizable=0;rotatable=0;part=1;html=1;" vertex="1" parent="ddGVAAA7YCfJVJd5zqxj-24">
          <mxGeometry y="50" width="160" height="70" as="geometry" />
        </mxCell>
        <mxCell id="ddGVAAA7YCfJVJd5zqxj-26" value="" style="endArrow=none;html=1;rounded=0;entryX=0.469;entryY=1.043;entryDx=0;entryDy=0;exitX=0;exitY=0;exitDx=0;exitDy=0;endFill=0;startArrow=none;startFill=0;entryPerimeter=0;" edge="1" parent="1" source="GUfL9EUCw7rr8f97CWck-17" target="ddGVAAA7YCfJVJd5zqxj-21">
          <mxGeometry width="50" height="50" relative="1" as="geometry">
            <mxPoint x="840" y="849.96" as="sourcePoint" />
            <mxPoint x="720" y="771.96" as="targetPoint" />
            <Array as="points">
              <mxPoint x="817" y="740" />
            </Array>
          </mxGeometry>
        </mxCell>
        <mxCell id="ddGVAAA7YCfJVJd5zqxj-27" value="" style="endArrow=none;html=1;rounded=0;entryX=0.75;entryY=1;entryDx=0;entryDy=0;exitX=0.25;exitY=0;exitDx=0;exitDy=0;edgeStyle=orthogonalEdgeStyle;endFill=0;startArrow=none;startFill=0;" edge="1" parent="1" source="ddGVAAA7YCfJVJd5zqxj-24" target="GUfL9EUCw7rr8f97CWck-27">
          <mxGeometry width="50" height="50" relative="1" as="geometry">
            <mxPoint x="650" y="818" as="sourcePoint" />
            <mxPoint x="530" y="740" as="targetPoint" />
          </mxGeometry>
        </mxCell>
        <mxCell id="ddGVAAA7YCfJVJd5zqxj-28" value="" style="endArrow=none;html=1;rounded=0;entryX=1;entryY=0;entryDx=0;entryDy=0;exitX=-0.01;exitY=0.3;exitDx=0;exitDy=0;startArrow=none;startFill=0;endFill=0;exitPerimeter=0;" edge="1" parent="1" source="GUfL9EUCw7rr8f97CWck-17" target="ddGVAAA7YCfJVJd5zqxj-25">
          <mxGeometry width="50" height="50" relative="1" as="geometry">
            <mxPoint x="930" y="959.96" as="sourcePoint" />
            <mxPoint x="810" y="881.96" as="targetPoint" />
            <Array as="points">
              <mxPoint x="800" y="797" />
              <mxPoint x="790" y="900" />
            </Array>
          </mxGeometry>
        </mxCell>
        <mxCell id="ddGVAAA7YCfJVJd5zqxj-30" value="" style="fontSize=12;html=1;endArrow=none;endFill=0;rounded=0;exitX=1.001;exitY=0.438;exitDx=0;exitDy=0;exitPerimeter=0;startArrow=none;startFill=0;entryX=0;entryY=0;entryDx=0;entryDy=0;" edge="1" parent="1" source="GUfL9EUCw7rr8f97CWck-27" target="mPiWdBAjLxL3O_C_GbBa-33">
          <mxGeometry width="100" height="100" relative="1" as="geometry">
            <mxPoint x="534" y="368" as="sourcePoint" />
            <mxPoint x="730" y="363" as="targetPoint" />
          </mxGeometry>
        </mxCell>
        <mxCell id="ddGVAAA7YCfJVJd5zqxj-33" value="" style="fontSize=12;html=1;endArrow=none;endFill=0;rounded=0;entryX=0.5;entryY=0;entryDx=0;entryDy=0;exitX=0.117;exitY=0.997;exitDx=0;exitDy=0;startArrow=none;startFill=0;exitPerimeter=0;" edge="1" parent="1" source="GUfL9EUCw7rr8f97CWck-53" target="ddGVAAA7YCfJVJd5zqxj-18">
          <mxGeometry width="100" height="100" relative="1" as="geometry">
            <mxPoint x="170" y="373" as="sourcePoint" />
            <mxPoint x="-50" y="370" as="targetPoint" />
          </mxGeometry>
        </mxCell>
        <mxCell id="ddGVAAA7YCfJVJd5zqxj-34" value="" style="fontSize=12;html=1;endArrow=none;endFill=0;rounded=0;exitX=0.401;exitY=1.02;exitDx=0;exitDy=0;startArrow=none;startFill=0;exitPerimeter=0;edgeStyle=orthogonalEdgeStyle;entryX=0.5;entryY=0;entryDx=0;entryDy=0;" edge="1" parent="1" source="GUfL9EUCw7rr8f97CWck-60" target="GUfL9EUCw7rr8f97CWck-50">
          <mxGeometry width="100" height="100" relative="1" as="geometry">
            <mxPoint x="1140" y="100" as="sourcePoint" />
            <mxPoint x="1510" y="270" as="targetPoint" />
            <Array as="points">
              <mxPoint x="1204" y="20" />
              <mxPoint x="1700" y="20" />
              <mxPoint x="1700" y="315" />
            </Array>
          </mxGeometry>
        </mxCell>
        <mxCell id="ddGVAAA7YCfJVJd5zqxj-35" value="" style="endArrow=none;html=1;rounded=0;entryX=0;entryY=0;entryDx=0;entryDy=0;exitX=0.988;exitY=0.408;exitDx=0;exitDy=0;exitPerimeter=0;endFill=0;startArrow=none;startFill=0;" edge="1" parent="1" source="mPiWdBAjLxL3O_C_GbBa-21" target="GUfL9EUCw7rr8f97CWck-58">
          <mxGeometry width="50" height="50" relative="1" as="geometry">
            <mxPoint x="660" y="330" as="sourcePoint" />
            <mxPoint x="880" y="160" as="targetPoint" />
          </mxGeometry>
        </mxCell>
        <mxCell id="ddGVAAA7YCfJVJd5zqxj-36" value="" style="fontSize=12;html=1;endArrow=none;endFill=0;rounded=0;entryX=0.002;entryY=0.577;entryDx=0;entryDy=0;exitX=1;exitY=0;exitDx=0;exitDy=0;entryPerimeter=0;startArrow=none;startFill=0;" edge="1" parent="1" source="ddGVAAA7YCfJVJd5zqxj-19" target="GUfL9EUCw7rr8f97CWck-27">
          <mxGeometry width="100" height="100" relative="1" as="geometry">
            <mxPoint x="250" y="510" as="sourcePoint" />
            <mxPoint x="380" y="513" as="targetPoint" />
          </mxGeometry>
        </mxCell>
        <mxCell id="ddGVAAA7YCfJVJd5zqxj-38" value="OS/Tipoproduto" style="swimlane;childLayout=stackLayout;horizontal=1;startSize=50;horizontalStack=0;rounded=1;fontSize=14;fontStyle=0;strokeWidth=2;resizeParent=0;resizeLast=1;shadow=0;dashed=0;align=center;arcSize=4;whiteSpace=wrap;html=1;" vertex="1" parent="1">
          <mxGeometry x="490" y="-130" width="150" height="100" as="geometry" />
        </mxCell>
        <mxCell id="ddGVAAA7YCfJVJd5zqxj-39" value="&lt;div&gt;ID_os-INT-NN-FK&lt;/div&gt;&lt;div&gt;ID_tipoproduto-INT-NN-FK&lt;/div&gt;" style="align=left;strokeColor=none;fillColor=none;spacingLeft=4;fontSize=12;verticalAlign=top;resizable=0;rotatable=0;part=1;html=1;" vertex="1" parent="ddGVAAA7YCfJVJd5zqxj-38">
          <mxGeometry y="50" width="150" height="50" as="geometry" />
        </mxCell>
        <mxCell id="ddGVAAA7YCfJVJd5zqxj-40" value="" style="endArrow=none;html=1;rounded=0;entryX=0;entryY=0;entryDx=0;entryDy=0;endFill=0;exitX=1;exitY=0;exitDx=0;exitDy=0;startArrow=none;startFill=0;" edge="1" parent="1" source="ddGVAAA7YCfJVJd5zqxj-39" target="GUfL9EUCw7rr8f97CWck-41">
          <mxGeometry width="50" height="50" relative="1" as="geometry">
            <mxPoint x="600" y="240" as="sourcePoint" />
            <mxPoint x="640" as="targetPoint" />
          </mxGeometry>
        </mxCell>
        <mxCell id="oz-2ojxwUdqr7WUobjw_-5" value="(1,1)" style="text;html=1;align=center;verticalAlign=middle;whiteSpace=wrap;rounded=0;" vertex="1" parent="1">
          <mxGeometry x="560" y="130" width="60" height="30" as="geometry" />
        </mxCell>
        <mxCell id="oz-2ojxwUdqr7WUobjw_-6" value="(n,0)" style="text;html=1;align=center;verticalAlign=middle;whiteSpace=wrap;rounded=0;" vertex="1" parent="1">
          <mxGeometry x="1220" y="240" width="60" height="30" as="geometry" />
        </mxCell>
        <mxCell id="oz-2ojxwUdqr7WUobjw_-7" value="(1,1)" style="text;html=1;align=center;verticalAlign=middle;whiteSpace=wrap;rounded=0;" vertex="1" parent="1">
          <mxGeometry x="455" y="130" width="60" height="30" as="geometry" />
        </mxCell>
        <mxCell id="oz-2ojxwUdqr7WUobjw_-8" value="(1,1)" style="text;html=1;align=center;verticalAlign=middle;whiteSpace=wrap;rounded=0;" vertex="1" parent="1">
          <mxGeometry x="320" y="150" width="60" height="30" as="geometry" />
        </mxCell>
        <mxCell id="oz-2ojxwUdqr7WUobjw_-9" value="(1,1)" style="text;html=1;align=center;verticalAlign=middle;whiteSpace=wrap;rounded=0;" vertex="1" parent="1">
          <mxGeometry x="580" y="270" width="60" height="30" as="geometry" />
        </mxCell>
        <mxCell id="oz-2ojxwUdqr7WUobjw_-10" value="(1,1)" style="text;html=1;align=center;verticalAlign=middle;whiteSpace=wrap;rounded=0;" vertex="1" parent="1">
          <mxGeometry x="260" y="210" width="60" height="30" as="geometry" />
        </mxCell>
        <mxCell id="oz-2ojxwUdqr7WUobjw_-11" value="(1,1)" style="text;html=1;align=center;verticalAlign=middle;whiteSpace=wrap;rounded=0;" vertex="1" parent="1">
          <mxGeometry x="720" y="-120" width="60" height="30" as="geometry" />
        </mxCell>
        <mxCell id="oz-2ojxwUdqr7WUobjw_-12" value="(1,1)" style="text;html=1;align=center;verticalAlign=middle;whiteSpace=wrap;rounded=0;" vertex="1" parent="1">
          <mxGeometry x="10" y="80" width="60" height="30" as="geometry" />
        </mxCell>
        <mxCell id="oz-2ojxwUdqr7WUobjw_-13" value="(1,1)" style="text;html=1;align=center;verticalAlign=middle;whiteSpace=wrap;rounded=0;" vertex="1" parent="1">
          <mxGeometry x="4" y="265" width="60" height="30" as="geometry" />
        </mxCell>
        <mxCell id="oz-2ojxwUdqr7WUobjw_-14" value="(1,1)" style="text;html=1;align=center;verticalAlign=middle;whiteSpace=wrap;rounded=0;" vertex="1" parent="1">
          <mxGeometry x="180" y="370" width="60" height="30" as="geometry" />
        </mxCell>
        <mxCell id="oz-2ojxwUdqr7WUobjw_-17" value="(1,1)" style="text;html=1;align=center;verticalAlign=middle;whiteSpace=wrap;rounded=0;" vertex="1" parent="1">
          <mxGeometry x="1070" y="-110" width="60" height="30" as="geometry" />
        </mxCell>
        <mxCell id="oz-2ojxwUdqr7WUobjw_-18" value="(1,1)" style="text;html=1;align=center;verticalAlign=middle;whiteSpace=wrap;rounded=0;" vertex="1" parent="1">
          <mxGeometry x="1195" y="-10" width="60" height="30" as="geometry" />
        </mxCell>
        <mxCell id="oz-2ojxwUdqr7WUobjw_-19" value="(1,1)" style="text;html=1;align=center;verticalAlign=middle;whiteSpace=wrap;rounded=0;" vertex="1" parent="1">
          <mxGeometry x="840" y="50" width="60" height="30" as="geometry" />
        </mxCell>
        <mxCell id="oz-2ojxwUdqr7WUobjw_-22" value="(1,1)" style="text;html=1;align=center;verticalAlign=middle;whiteSpace=wrap;rounded=0;" vertex="1" parent="1">
          <mxGeometry x="1420" y="-110" width="60" height="30" as="geometry" />
        </mxCell>
        <mxCell id="oz-2ojxwUdqr7WUobjw_-23" value="(1,1)" style="text;html=1;align=center;verticalAlign=middle;whiteSpace=wrap;rounded=0;" vertex="1" parent="1">
          <mxGeometry x="971" y="432.5" width="60" height="30" as="geometry" />
        </mxCell>
        <mxCell id="oz-2ojxwUdqr7WUobjw_-24" value="(1,1)" style="text;html=1;align=center;verticalAlign=middle;whiteSpace=wrap;rounded=0;" vertex="1" parent="1">
          <mxGeometry x="1190" y="410" width="60" height="30" as="geometry" />
        </mxCell>
        <mxCell id="oz-2ojxwUdqr7WUobjw_-26" value="(1,1)" style="text;html=1;align=center;verticalAlign=middle;whiteSpace=wrap;rounded=0;" vertex="1" parent="1">
          <mxGeometry x="1046" y="620" width="60" height="30" as="geometry" />
        </mxCell>
        <mxCell id="oz-2ojxwUdqr7WUobjw_-27" value="(1,1)" style="text;html=1;align=center;verticalAlign=middle;whiteSpace=wrap;rounded=0;" vertex="1" parent="1">
          <mxGeometry x="814" y="710" width="60" height="30" as="geometry" />
        </mxCell>
        <mxCell id="oz-2ojxwUdqr7WUobjw_-28" value="(1,1)" style="text;html=1;align=center;verticalAlign=middle;whiteSpace=wrap;rounded=0;" vertex="1" parent="1">
          <mxGeometry x="814" y="770" width="60" height="30" as="geometry" />
        </mxCell>
        <mxCell id="oz-2ojxwUdqr7WUobjw_-29" value="(1,1)" style="text;html=1;align=center;verticalAlign=middle;whiteSpace=wrap;rounded=0;" vertex="1" parent="1">
          <mxGeometry x="415" y="850" width="60" height="30" as="geometry" />
        </mxCell>
        <mxCell id="oz-2ojxwUdqr7WUobjw_-30" value="(1,1)" style="text;html=1;align=center;verticalAlign=middle;whiteSpace=wrap;rounded=0;" vertex="1" parent="1">
          <mxGeometry x="430" y="700" width="60" height="30" as="geometry" />
        </mxCell>
        <mxCell id="oz-2ojxwUdqr7WUobjw_-31" value="(1,1)" style="text;html=1;align=center;verticalAlign=middle;whiteSpace=wrap;rounded=0;" vertex="1" parent="1">
          <mxGeometry x="535" y="555" width="60" height="30" as="geometry" />
        </mxCell>
        <mxCell id="oz-2ojxwUdqr7WUobjw_-32" value="(1,1)" style="text;html=1;align=center;verticalAlign=middle;whiteSpace=wrap;rounded=0;" vertex="1" parent="1">
          <mxGeometry x="590" y="500" width="60" height="30" as="geometry" />
        </mxCell>
        <mxCell id="oz-2ojxwUdqr7WUobjw_-33" value="(1,1)" style="text;html=1;align=center;verticalAlign=middle;whiteSpace=wrap;rounded=0;" vertex="1" parent="1">
          <mxGeometry x="-170" y="510" width="60" height="30" as="geometry" />
        </mxCell>
        <mxCell id="oz-2ojxwUdqr7WUobjw_-34" value="(1,1)" style="text;html=1;align=center;verticalAlign=middle;whiteSpace=wrap;rounded=0;" vertex="1" parent="1">
          <mxGeometry x="160" y="25" width="60" height="30" as="geometry" />
        </mxCell>
        <mxCell id="oz-2ojxwUdqr7WUobjw_-35" value="(1,1)" style="text;html=1;align=center;verticalAlign=middle;whiteSpace=wrap;rounded=0;" vertex="1" parent="1">
          <mxGeometry x="-160" y="265" width="60" height="30" as="geometry" />
        </mxCell>
        <mxCell id="oz-2ojxwUdqr7WUobjw_-40" value="(1,1)" style="text;html=1;align=center;verticalAlign=middle;whiteSpace=wrap;rounded=0;" vertex="1" parent="1">
          <mxGeometry x="-130" y="-230" width="60" height="30" as="geometry" />
        </mxCell>
        <mxCell id="oz-2ojxwUdqr7WUobjw_-41" value="(1,1)" style="text;html=1;align=center;verticalAlign=middle;whiteSpace=wrap;rounded=0;" vertex="1" parent="1">
          <mxGeometry x="384" y="560" width="60" height="30" as="geometry" />
        </mxCell>
        <mxCell id="oz-2ojxwUdqr7WUobjw_-42" value="(n,1)" style="text;html=1;align=center;verticalAlign=middle;whiteSpace=wrap;rounded=0;" vertex="1" parent="1">
          <mxGeometry x="320" y="420" width="60" height="30" as="geometry" />
        </mxCell>
        <mxCell id="oz-2ojxwUdqr7WUobjw_-43" value="(n,1)" style="text;html=1;align=center;verticalAlign=middle;whiteSpace=wrap;rounded=0;" vertex="1" parent="1">
          <mxGeometry x="475" y="560" width="60" height="30" as="geometry" />
        </mxCell>
        <mxCell id="oz-2ojxwUdqr7WUobjw_-44" value="(n,1)" style="text;html=1;align=center;verticalAlign=middle;whiteSpace=wrap;rounded=0;" vertex="1" parent="1">
          <mxGeometry x="444" y="890" width="60" height="30" as="geometry" />
        </mxCell>
        <mxCell id="oz-2ojxwUdqr7WUobjw_-46" value="(n,1)" style="text;html=1;align=center;verticalAlign=middle;whiteSpace=wrap;rounded=0;" vertex="1" parent="1">
          <mxGeometry x="1020" y="660" width="60" height="30" as="geometry" />
        </mxCell>
        <mxCell id="oz-2ojxwUdqr7WUobjw_-48" value="(1,1)" style="text;html=1;align=center;verticalAlign=middle;whiteSpace=wrap;rounded=0;" vertex="1" parent="1">
          <mxGeometry x="1190" y="462.5" width="60" height="20" as="geometry" />
        </mxCell>
        <mxCell id="oz-2ojxwUdqr7WUobjw_-51" value="(n,0)" style="text;html=1;align=center;verticalAlign=middle;whiteSpace=wrap;rounded=0;" vertex="1" parent="1">
          <mxGeometry x="1320" y="-80" width="60" height="30" as="geometry" />
        </mxCell>
        <mxCell id="oz-2ojxwUdqr7WUobjw_-52" value="(n,1)" style="text;html=1;align=center;verticalAlign=middle;whiteSpace=wrap;rounded=0;" vertex="1" parent="1">
          <mxGeometry x="990" y="-70" width="60" height="30" as="geometry" />
        </mxCell>
        <mxCell id="oz-2ojxwUdqr7WUobjw_-53" value="(n,1)" style="text;html=1;align=center;verticalAlign=middle;whiteSpace=wrap;rounded=0;" vertex="1" parent="1">
          <mxGeometry x="900" y="50" width="60" height="30" as="geometry" />
        </mxCell>
        <mxCell id="oz-2ojxwUdqr7WUobjw_-54" value="(n,0)" style="text;html=1;align=center;verticalAlign=middle;whiteSpace=wrap;rounded=0;" vertex="1" parent="1">
          <mxGeometry x="640" y="90" width="60" height="30" as="geometry" />
        </mxCell>
        <mxCell id="oz-2ojxwUdqr7WUobjw_-55" value="(n,0)" style="text;html=1;align=center;verticalAlign=middle;whiteSpace=wrap;rounded=0;" vertex="1" parent="1">
          <mxGeometry x="324" y="220" width="60" height="30" as="geometry" />
        </mxCell>
        <mxCell id="oz-2ojxwUdqr7WUobjw_-56" value="(n,1)" style="text;html=1;align=center;verticalAlign=middle;whiteSpace=wrap;rounded=0;" vertex="1" parent="1">
          <mxGeometry x="80" y="300" width="60" height="30" as="geometry" />
        </mxCell>
        <mxCell id="oz-2ojxwUdqr7WUobjw_-57" value="(1,1)" style="text;html=1;align=center;verticalAlign=middle;whiteSpace=wrap;rounded=0;" vertex="1" parent="1">
          <mxGeometry x="4" y="140" width="60" height="30" as="geometry" />
        </mxCell>
        <mxCell id="oz-2ojxwUdqr7WUobjw_-58" value="(n,0)" style="text;html=1;align=center;verticalAlign=middle;whiteSpace=wrap;rounded=0;" vertex="1" parent="1">
          <mxGeometry x="585" y="430" width="60" height="30" as="geometry" />
        </mxCell>
        <mxCell id="oz-2ojxwUdqr7WUobjw_-59" value="(n,0)" style="text;html=1;align=center;verticalAlign=middle;whiteSpace=wrap;rounded=0;" vertex="1" parent="1">
          <mxGeometry x="645" y="820" width="60" height="30" as="geometry" />
        </mxCell>
        <mxCell id="oz-2ojxwUdqr7WUobjw_-60" value="(n,0)" style="text;html=1;align=center;verticalAlign=middle;whiteSpace=wrap;rounded=0;" vertex="1" parent="1">
          <mxGeometry x="760" y="900" width="60" height="30" as="geometry" />
        </mxCell>
        <mxCell id="oz-2ojxwUdqr7WUobjw_-61" value="(n,0)" style="text;html=1;align=center;verticalAlign=middle;whiteSpace=wrap;rounded=0;" vertex="1" parent="1">
          <mxGeometry x="1290" y="410" width="60" height="30" as="geometry" />
        </mxCell>
        <mxCell id="oz-2ojxwUdqr7WUobjw_-62" value="(n,0)" style="text;html=1;align=center;verticalAlign=middle;whiteSpace=wrap;rounded=0;" vertex="1" parent="1">
          <mxGeometry x="1650" y="280" width="60" height="30" as="geometry" />
        </mxCell>
        <mxCell id="oz-2ojxwUdqr7WUobjw_-63" value="(n,0)" style="text;html=1;align=center;verticalAlign=middle;whiteSpace=wrap;rounded=0;" vertex="1" parent="1">
          <mxGeometry x="630" y="-80" width="60" height="30" as="geometry" />
        </mxCell>
        <mxCell id="oz-2ojxwUdqr7WUobjw_-64" value="(n,0)" style="text;html=1;align=center;verticalAlign=middle;whiteSpace=wrap;rounded=0;" vertex="1" parent="1">
          <mxGeometry x="440" y="-110" width="60" height="30" as="geometry" />
        </mxCell>
        <mxCell id="oz-2ojxwUdqr7WUobjw_-65" value="(1,1)" style="text;html=1;align=center;verticalAlign=middle;whiteSpace=wrap;rounded=0;" vertex="1" parent="1">
          <mxGeometry x="-220" y="-5" width="60" height="30" as="geometry" />
        </mxCell>
        <mxCell id="oz-2ojxwUdqr7WUobjw_-66" value="(1,0)" style="text;html=1;align=center;verticalAlign=middle;whiteSpace=wrap;rounded=0;" vertex="1" parent="1">
          <mxGeometry x="10" y="330" width="60" height="30" as="geometry" />
        </mxCell>
        <mxCell id="oz-2ojxwUdqr7WUobjw_-67" value="(1,0)" style="text;html=1;align=center;verticalAlign=middle;whiteSpace=wrap;rounded=0;" vertex="1" parent="1">
          <mxGeometry x="220" y="-110" width="60" height="30" as="geometry" />
        </mxCell>
        <mxCell id="oz-2ojxwUdqr7WUobjw_-69" value="(n,0)" style="text;html=1;align=center;verticalAlign=middle;whiteSpace=wrap;rounded=0;" vertex="1" parent="1">
          <mxGeometry x="800" y="330" width="60" height="30" as="geometry" />
        </mxCell>
        <mxCell id="oz-2ojxwUdqr7WUobjw_-70" value="(1,1)" style="text;html=1;align=center;verticalAlign=middle;whiteSpace=wrap;rounded=0;" vertex="1" parent="1">
          <mxGeometry x="594" y="330" width="60" height="30" as="geometry" />
        </mxCell>
        <mxCell id="oz-2ojxwUdqr7WUobjw_-71" value="(1,0)" style="text;html=1;align=center;verticalAlign=middle;whiteSpace=wrap;rounded=0;" vertex="1" parent="1">
          <mxGeometry x="814" y="600" width="60" height="30" as="geometry" />
        </mxCell>
        <mxCell id="oz-2ojxwUdqr7WUobjw_-72" value="(n,1)" style="text;html=1;align=center;verticalAlign=middle;whiteSpace=wrap;rounded=0;" vertex="1" parent="1">
          <mxGeometry x="324" y="520" width="60" height="30" as="geometry" />
        </mxCell>
        <mxCell id="oz-2ojxwUdqr7WUobjw_-73" value="(n,0)" style="text;html=1;align=center;verticalAlign=middle;whiteSpace=wrap;rounded=0;" vertex="1" parent="1">
          <mxGeometry x="310" y="610" width="60" height="30" as="geometry" />
        </mxCell>
        <mxCell id="oz-2ojxwUdqr7WUobjw_-74" value="(1,0)" style="text;html=1;align=center;verticalAlign=middle;whiteSpace=wrap;rounded=0;" vertex="1" parent="1">
          <mxGeometry x="654" y="530" width="60" height="30" as="geometry" />
        </mxCell>
        <mxCell id="mPiWdBAjLxL3O_C_GbBa-1" value="&lt;span style=&quot;font-size: 12px; text-align: left; text-wrap: nowrap;&quot;&gt;OS_Servico/&lt;/span&gt;Servico" style="swimlane;childLayout=stackLayout;horizontal=1;startSize=50;horizontalStack=0;rounded=1;fontSize=14;fontStyle=0;strokeWidth=2;resizeParent=0;resizeLast=1;shadow=0;dashed=0;align=center;arcSize=4;whiteSpace=wrap;html=1;" vertex="1" parent="1">
          <mxGeometry x="950" y="40" width="200" height="120" as="geometry" />
        </mxCell>
        <mxCell id="mPiWdBAjLxL3O_C_GbBa-2" value="&lt;div&gt;&lt;span style=&quot;background-color: initial;&quot;&gt;id_osservico&lt;/span&gt;-INT-NN-FK&lt;/div&gt;&lt;div&gt;&lt;div&gt;&lt;span style=&quot;background-color: initial;&quot;&gt;id_servico&lt;/span&gt;-INT-NN-FK&lt;/div&gt;&lt;/div&gt;" style="align=left;strokeColor=none;fillColor=none;spacingLeft=4;fontSize=12;verticalAlign=top;resizable=0;rotatable=0;part=1;html=1;" vertex="1" parent="mPiWdBAjLxL3O_C_GbBa-1">
          <mxGeometry y="50" width="200" height="70" as="geometry" />
        </mxCell>
        <mxCell id="mPiWdBAjLxL3O_C_GbBa-3" value="" style="endArrow=none;html=1;rounded=0;entryX=1;entryY=0;entryDx=0;entryDy=0;endFill=0;startArrow=none;startFill=0;exitX=0;exitY=0;exitDx=0;exitDy=0;" edge="1" parent="1" source="rghxRi4L2u9oOf768lQL-2" target="mPiWdBAjLxL3O_C_GbBa-2">
          <mxGeometry width="50" height="50" relative="1" as="geometry">
            <mxPoint x="1255" y="184.5" as="sourcePoint" />
            <mxPoint x="1156" y="184.5" as="targetPoint" />
          </mxGeometry>
        </mxCell>
        <mxCell id="mPiWdBAjLxL3O_C_GbBa-4" value="(n,0)" style="text;html=1;align=center;verticalAlign=middle;whiteSpace=wrap;rounded=0;" vertex="1" parent="1">
          <mxGeometry x="1140" y="60" width="60" height="30" as="geometry" />
        </mxCell>
        <mxCell id="mPiWdBAjLxL3O_C_GbBa-5" value="(1,1)" style="text;html=1;align=center;verticalAlign=middle;whiteSpace=wrap;rounded=0;" vertex="1" parent="1">
          <mxGeometry x="1211" y="85" width="60" height="30" as="geometry" />
        </mxCell>
        <mxCell id="mPiWdBAjLxL3O_C_GbBa-6" value="Plano_Pagamento/forma_pagamento" style="swimlane;childLayout=stackLayout;horizontal=1;startSize=50;horizontalStack=0;rounded=1;fontSize=14;fontStyle=0;strokeWidth=2;resizeParent=0;resizeLast=1;shadow=0;dashed=0;align=center;arcSize=4;whiteSpace=wrap;html=1;" vertex="1" parent="1">
          <mxGeometry x="380" y="920" width="160" height="120" as="geometry" />
        </mxCell>
        <mxCell id="mPiWdBAjLxL3O_C_GbBa-7" value="&lt;div&gt;id_plano_pagamento&lt;/div&gt;&lt;div&gt;&lt;span style=&quot;background-color: initial;&quot;&gt;id_forma_pagamento&lt;/span&gt;&lt;/div&gt;" style="align=left;strokeColor=none;fillColor=none;spacingLeft=4;fontSize=12;verticalAlign=top;resizable=0;rotatable=0;part=1;html=1;" vertex="1" parent="mPiWdBAjLxL3O_C_GbBa-6">
          <mxGeometry y="50" width="160" height="70" as="geometry" />
        </mxCell>
        <mxCell id="mPiWdBAjLxL3O_C_GbBa-8" value="" style="fontSize=12;html=1;endArrow=none;endFill=0;rounded=0;entryX=0;entryY=0;entryDx=0;entryDy=0;exitX=1;exitY=0;exitDx=0;exitDy=0;" edge="1" parent="1" source="GUfL9EUCw7rr8f97CWck-35" target="mPiWdBAjLxL3O_C_GbBa-7">
          <mxGeometry width="100" height="100" relative="1" as="geometry">
            <mxPoint x="290" y="1050" as="sourcePoint" />
            <mxPoint x="390" y="950" as="targetPoint" />
          </mxGeometry>
        </mxCell>
        <mxCell id="mPiWdBAjLxL3O_C_GbBa-9" value="(n,0)" style="text;html=1;align=center;verticalAlign=middle;whiteSpace=wrap;rounded=0;" vertex="1" parent="1">
          <mxGeometry x="330" y="940" width="60" height="30" as="geometry" />
        </mxCell>
        <mxCell id="mPiWdBAjLxL3O_C_GbBa-12" value="(1,1)" style="text;html=1;align=center;verticalAlign=middle;whiteSpace=wrap;rounded=0;" vertex="1" parent="1">
          <mxGeometry x="275" y="970" width="60" height="30" as="geometry" />
        </mxCell>
        <mxCell id="mPiWdBAjLxL3O_C_GbBa-14" value="Acessorio" style="swimlane;childLayout=stackLayout;horizontal=1;startSize=50;horizontalStack=0;rounded=1;fontSize=14;fontStyle=0;strokeWidth=2;resizeParent=0;resizeLast=1;shadow=0;dashed=0;align=center;arcSize=4;whiteSpace=wrap;html=1;" vertex="1" parent="1">
          <mxGeometry x="-156" y="590" width="230" height="120" as="geometry" />
        </mxCell>
        <mxCell id="mPiWdBAjLxL3O_C_GbBa-15" value="&lt;div&gt;&lt;span style=&quot;background-color: initial;&quot;&gt;id_acessorio-INT-NN-PK&lt;/span&gt;&lt;br&gt;&lt;/div&gt;&lt;div&gt;descricao_acessorio-VARCHAR(100)-NN&lt;/div&gt;" style="align=left;strokeColor=none;fillColor=none;spacingLeft=4;fontSize=12;verticalAlign=top;resizable=0;rotatable=0;part=1;html=1;" vertex="1" parent="mPiWdBAjLxL3O_C_GbBa-14">
          <mxGeometry y="50" width="230" height="70" as="geometry" />
        </mxCell>
        <mxCell id="mPiWdBAjLxL3O_C_GbBa-17" value="" style="endArrow=none;html=1;rounded=0;entryX=1;entryY=0;entryDx=0;entryDy=0;exitX=0;exitY=0;exitDx=0;exitDy=0;startArrow=none;startFill=0;endFill=0;" edge="1" parent="1" source="GUfL9EUCw7rr8f97CWck-30" target="mPiWdBAjLxL3O_C_GbBa-15">
          <mxGeometry width="50" height="50" relative="1" as="geometry">
            <mxPoint x="335" y="650" as="sourcePoint" />
            <mxPoint x="409" y="569" as="targetPoint" />
          </mxGeometry>
        </mxCell>
        <mxCell id="mPiWdBAjLxL3O_C_GbBa-19" value="(1,1)" style="text;html=1;align=center;verticalAlign=middle;whiteSpace=wrap;rounded=0;" vertex="1" parent="1">
          <mxGeometry x="64" y="610" width="60" height="30" as="geometry" />
        </mxCell>
        <mxCell id="mPiWdBAjLxL3O_C_GbBa-20" value="(n,0)" style="text;html=1;align=center;verticalAlign=middle;whiteSpace=wrap;rounded=0;" vertex="1" parent="1">
          <mxGeometry x="100" y="640" width="60" height="30" as="geometry" />
        </mxCell>
        <mxCell id="mPiWdBAjLxL3O_C_GbBa-21" value="&lt;div&gt;OS/Categoria&lt;/div&gt;" style="swimlane;childLayout=stackLayout;horizontal=1;startSize=50;horizontalStack=0;rounded=1;fontSize=14;fontStyle=0;strokeWidth=2;resizeParent=0;resizeLast=1;shadow=0;dashed=0;align=center;arcSize=4;whiteSpace=wrap;html=1;" vertex="1" parent="1">
          <mxGeometry x="1070" y="220" width="160" height="120" as="geometry" />
        </mxCell>
        <mxCell id="mPiWdBAjLxL3O_C_GbBa-22" value="&lt;div&gt;&lt;span style=&quot;background-color: initial;&quot;&gt;is_os&lt;/span&gt;-INT-NN-FK&lt;/div&gt;&lt;div&gt;&lt;span style=&quot;background-color: initial;&quot;&gt;i&lt;/span&gt;&lt;span style=&quot;background-color: initial;&quot;&gt;id_categoria&lt;/span&gt;-INT-NN-FK&lt;/div&gt;&lt;div&gt;&lt;br&gt;&lt;/div&gt;" style="align=left;strokeColor=none;fillColor=none;spacingLeft=4;fontSize=12;verticalAlign=top;resizable=0;rotatable=0;part=1;html=1;" vertex="1" parent="mPiWdBAjLxL3O_C_GbBa-21">
          <mxGeometry y="50" width="160" height="70" as="geometry" />
        </mxCell>
        <mxCell id="mPiWdBAjLxL3O_C_GbBa-23" value="(1,1)" style="text;html=1;align=center;verticalAlign=middle;whiteSpace=wrap;rounded=0;" vertex="1" parent="1">
          <mxGeometry x="1300" y="270" width="60" height="30" as="geometry" />
        </mxCell>
        <mxCell id="mPiWdBAjLxL3O_C_GbBa-24" value="" style="endArrow=none;html=1;rounded=0;entryX=0;entryY=0;entryDx=0;entryDy=0;exitX=1.009;exitY=0.183;exitDx=0;exitDy=0;endFill=0;startArrow=none;startFill=0;exitPerimeter=0;" edge="1" parent="1" source="GUfL9EUCw7rr8f97CWck-27" target="mPiWdBAjLxL3O_C_GbBa-22">
          <mxGeometry width="50" height="50" relative="1" as="geometry">
            <mxPoint x="645" y="279" as="sourcePoint" />
            <mxPoint x="780" y="280" as="targetPoint" />
          </mxGeometry>
        </mxCell>
        <mxCell id="mPiWdBAjLxL3O_C_GbBa-25" value="(n,1)" style="text;html=1;align=center;verticalAlign=middle;whiteSpace=wrap;rounded=0;" vertex="1" parent="1">
          <mxGeometry x="1020" y="240" width="60" height="30" as="geometry" />
        </mxCell>
        <mxCell id="mPiWdBAjLxL3O_C_GbBa-27" value="Filial/Produto" style="swimlane;childLayout=stackLayout;horizontal=1;startSize=50;horizontalStack=0;rounded=1;fontSize=14;fontStyle=0;strokeWidth=2;resizeParent=0;resizeLast=1;shadow=0;dashed=0;align=center;arcSize=4;whiteSpace=wrap;html=1;" vertex="1" parent="1">
          <mxGeometry x="1340" y="402.5" width="130" height="90" as="geometry" />
        </mxCell>
        <mxCell id="mPiWdBAjLxL3O_C_GbBa-28" value="&lt;div&gt;id_filial-INT-NN-FK&lt;/div&gt;&lt;div&gt;id_produto-INT-NN-FK&lt;/div&gt;" style="align=left;strokeColor=none;fillColor=none;spacingLeft=4;fontSize=12;verticalAlign=top;resizable=0;rotatable=0;part=1;html=1;" vertex="1" parent="mPiWdBAjLxL3O_C_GbBa-27">
          <mxGeometry y="50" width="130" height="40" as="geometry" />
        </mxCell>
        <mxCell id="mPiWdBAjLxL3O_C_GbBa-29" value="" style="endArrow=none;html=1;rounded=0;entryX=1.011;entryY=0.424;entryDx=0;entryDy=0;startArrow=none;startFill=0;endFill=0;entryPerimeter=0;exitX=-0.011;exitY=0.33;exitDx=0;exitDy=0;exitPerimeter=0;" edge="1" parent="1" source="GUfL9EUCw7rr8f97CWck-51" target="mPiWdBAjLxL3O_C_GbBa-27">
          <mxGeometry width="50" height="50" relative="1" as="geometry">
            <mxPoint x="1560" y="530" as="sourcePoint" />
            <mxPoint x="1455" y="548" as="targetPoint" />
          </mxGeometry>
        </mxCell>
        <mxCell id="mPiWdBAjLxL3O_C_GbBa-30" value="(n,0)" style="text;html=1;align=center;verticalAlign=middle;whiteSpace=wrap;rounded=0;" vertex="1" parent="1">
          <mxGeometry x="1455" y="405" width="60" height="30" as="geometry" />
        </mxCell>
        <mxCell id="mPiWdBAjLxL3O_C_GbBa-31" value="(1,1)" style="text;html=1;align=center;verticalAlign=middle;whiteSpace=wrap;rounded=0;" vertex="1" parent="1">
          <mxGeometry x="1555" y="410" width="60" height="30" as="geometry" />
        </mxCell>
        <mxCell id="mPiWdBAjLxL3O_C_GbBa-32" value="&lt;div&gt;OS/Produto&lt;/div&gt;" style="swimlane;childLayout=stackLayout;horizontal=1;startSize=50;horizontalStack=0;rounded=1;fontSize=14;fontStyle=0;strokeWidth=2;resizeParent=0;resizeLast=1;shadow=0;dashed=0;align=center;arcSize=4;whiteSpace=wrap;html=1;" vertex="1" parent="1">
          <mxGeometry x="850" y="315" width="130" height="100" as="geometry" />
        </mxCell>
        <mxCell id="mPiWdBAjLxL3O_C_GbBa-33" value="&lt;div&gt;id_os-INT-NN-FK&lt;/div&gt;&lt;div&gt;&lt;span style=&quot;background-color: initial;&quot;&gt;id_produto&lt;/span&gt;-INT-NN-FK&lt;/div&gt;&lt;div&gt;&lt;br&gt;&lt;/div&gt;" style="align=left;strokeColor=none;fillColor=none;spacingLeft=4;fontSize=12;verticalAlign=top;resizable=0;rotatable=0;part=1;html=1;" vertex="1" parent="mPiWdBAjLxL3O_C_GbBa-32">
          <mxGeometry y="50" width="130" height="50" as="geometry" />
        </mxCell>
        <mxCell id="mPiWdBAjLxL3O_C_GbBa-34" value="" style="fontSize=12;html=1;endArrow=none;endFill=0;rounded=0;exitX=1;exitY=0;exitDx=0;exitDy=0;startArrow=none;startFill=0;entryX=0;entryY=0;entryDx=0;entryDy=0;" edge="1" parent="1" source="mPiWdBAjLxL3O_C_GbBa-33" target="GUfL9EUCw7rr8f97CWck-51">
          <mxGeometry width="100" height="100" relative="1" as="geometry">
            <mxPoint x="1050" y="373" as="sourcePoint" />
            <mxPoint x="1300" y="375" as="targetPoint" />
          </mxGeometry>
        </mxCell>
        <mxCell id="mPiWdBAjLxL3O_C_GbBa-35" value="(n,0)" style="text;html=1;align=center;verticalAlign=middle;whiteSpace=wrap;rounded=0;" vertex="1" parent="1">
          <mxGeometry x="970" y="330" width="60" height="30" as="geometry" />
        </mxCell>
        <mxCell id="mPiWdBAjLxL3O_C_GbBa-36" value="(1,1)" style="text;html=1;align=center;verticalAlign=middle;whiteSpace=wrap;rounded=0;" vertex="1" parent="1">
          <mxGeometry x="1555" y="360" width="60" height="30" as="geometry" />
        </mxCell>
        <mxCell id="mPiWdBAjLxL3O_C_GbBa-37" value="" style="edgeStyle=orthogonalEdgeStyle;fontSize=12;html=1;endArrow=none;endFill=0;rounded=0;startArrow=none;startFill=0;entryX=1.014;entryY=0.195;entryDx=0;entryDy=0;exitX=1.012;exitY=0.854;exitDx=0;exitDy=0;exitPerimeter=0;entryPerimeter=0;" edge="1" parent="1" source="mPiWdBAjLxL3O_C_GbBa-39" target="GUfL9EUCw7rr8f97CWck-2">
          <mxGeometry width="100" height="100" relative="1" as="geometry">
            <mxPoint x="-60" y="1140" as="sourcePoint" />
            <mxPoint x="1204" y="580" as="targetPoint" />
            <Array as="points">
              <mxPoint x="1324" y="1140" />
              <mxPoint x="1324" y="490" />
              <mxPoint x="1202" y="490" />
            </Array>
          </mxGeometry>
        </mxCell>
        <mxCell id="mPiWdBAjLxL3O_C_GbBa-38" value="Cliente/Filial" style="swimlane;childLayout=stackLayout;horizontal=1;startSize=50;horizontalStack=0;rounded=1;fontSize=14;fontStyle=0;strokeWidth=2;resizeParent=0;resizeLast=1;shadow=0;dashed=0;align=center;arcSize=4;whiteSpace=wrap;html=1;" vertex="1" parent="1">
          <mxGeometry x="-200" y="1030" width="120" height="120" as="geometry" />
        </mxCell>
        <mxCell id="mPiWdBAjLxL3O_C_GbBa-39" value="&lt;div&gt;&lt;span style=&quot;background-color: initial;&quot;&gt;id_cliente&lt;/span&gt;-INT-NN-FK&lt;/div&gt;&lt;div&gt;id_filial-INT-NN-FK&lt;/div&gt;" style="align=left;strokeColor=none;fillColor=none;spacingLeft=4;fontSize=12;verticalAlign=top;resizable=0;rotatable=0;part=1;html=1;" vertex="1" parent="mPiWdBAjLxL3O_C_GbBa-38">
          <mxGeometry y="50" width="120" height="70" as="geometry" />
        </mxCell>
        <mxCell id="mPiWdBAjLxL3O_C_GbBa-40" value="(n,0)" style="text;html=1;align=center;verticalAlign=middle;whiteSpace=wrap;rounded=0;" vertex="1" parent="1">
          <mxGeometry x="-80" y="1090" width="60" height="30" as="geometry" />
        </mxCell>
        <mxCell id="mPiWdBAjLxL3O_C_GbBa-41" value="" style="endArrow=none;html=1;rounded=0;startArrow=none;startFill=0;endFill=0;entryX=-0.009;entryY=0.296;entryDx=0;entryDy=0;entryPerimeter=0;exitX=0;exitY=0;exitDx=0;exitDy=0;" edge="1" parent="1" source="mPiWdBAjLxL3O_C_GbBa-39" target="GUfL9EUCw7rr8f97CWck-53">
          <mxGeometry width="50" height="50" relative="1" as="geometry">
            <mxPoint x="-470" y="1130" as="sourcePoint" />
            <mxPoint x="-20" y="167" as="targetPoint" />
            <Array as="points">
              <mxPoint x="-470" y="1080" />
              <mxPoint x="-470" y="167" />
              <mxPoint x="-120" y="167" />
            </Array>
          </mxGeometry>
        </mxCell>
        <mxCell id="mPiWdBAjLxL3O_C_GbBa-42" value="(n,0)" style="text;html=1;align=center;verticalAlign=middle;whiteSpace=wrap;rounded=0;" vertex="1" parent="1">
          <mxGeometry x="-250" y="1050" width="60" height="30" as="geometry" />
        </mxCell>
        <mxCell id="mPiWdBAjLxL3O_C_GbBa-43" value="Endereco_Busca" style="swimlane;childLayout=stackLayout;horizontal=1;startSize=50;horizontalStack=0;rounded=1;fontSize=14;fontStyle=0;strokeWidth=2;resizeParent=0;resizeLast=1;shadow=0;dashed=0;align=center;arcSize=4;whiteSpace=wrap;html=1;" vertex="1" parent="1">
          <mxGeometry x="10" y="-330" width="210" height="100" as="geometry" />
        </mxCell>
        <mxCell id="mPiWdBAjLxL3O_C_GbBa-44" value="&lt;div&gt;&lt;div style=&quot;font-size: 11px;&quot;&gt;&lt;font style=&quot;font-size: 11px;&quot;&gt;id_enderecobusca-INT-NN-FK&lt;/font&gt;&lt;/div&gt;&lt;/div&gt;&lt;div&gt;&lt;div&gt;id_endereÃ§o-INT-NN-FK&lt;br&gt;&lt;/div&gt;&lt;/div&gt;" style="align=left;strokeColor=none;fillColor=none;spacingLeft=4;fontSize=12;verticalAlign=top;resizable=0;rotatable=0;part=1;html=1;" vertex="1" parent="mPiWdBAjLxL3O_C_GbBa-43">
          <mxGeometry y="50" width="210" height="50" as="geometry" />
        </mxCell>
        <mxCell id="mPiWdBAjLxL3O_C_GbBa-45" value="Endereco_Entrega" style="swimlane;childLayout=stackLayout;horizontal=1;startSize=50;horizontalStack=0;rounded=1;fontSize=14;fontStyle=0;strokeWidth=2;resizeParent=0;resizeLast=1;shadow=0;dashed=0;align=center;arcSize=4;whiteSpace=wrap;html=1;" vertex="1" parent="1">
          <mxGeometry x="494" y="-330" width="196" height="100" as="geometry" />
        </mxCell>
        <mxCell id="mPiWdBAjLxL3O_C_GbBa-46" value="&lt;div&gt;&lt;font style=&quot;font-size: 11px;&quot;&gt;id_enderecoentrega-INT-NN-FK&lt;/font&gt;&lt;/div&gt;&lt;div&gt;&lt;div&gt;id_endereÃ§o-INT-NN-FK&lt;br&gt;&lt;/div&gt;&lt;/div&gt;" style="align=left;strokeColor=none;fillColor=none;spacingLeft=4;fontSize=12;verticalAlign=top;resizable=0;rotatable=0;part=1;html=1;" vertex="1" parent="mPiWdBAjLxL3O_C_GbBa-45">
          <mxGeometry y="50" width="196" height="50" as="geometry" />
        </mxCell>
        <mxCell id="mPiWdBAjLxL3O_C_GbBa-47" value="" style="fontSize=12;html=1;endArrow=none;endFill=0;rounded=0;exitX=0.129;exitY=0.001;exitDx=0;exitDy=0;exitPerimeter=0;entryX=1;entryY=0;entryDx=0;entryDy=0;startArrow=none;startFill=0;" edge="1" parent="1" source="GUfL9EUCw7rr8f97CWck-26" target="mPiWdBAjLxL3O_C_GbBa-44">
          <mxGeometry width="100" height="100" relative="1" as="geometry">
            <mxPoint x="390" y="156" as="sourcePoint" />
            <mxPoint x="330" y="-247" as="targetPoint" />
            <Array as="points">
              <mxPoint x="400" y="-282" />
            </Array>
          </mxGeometry>
        </mxCell>
        <mxCell id="mPiWdBAjLxL3O_C_GbBa-48" value="" style="fontSize=12;html=1;endArrow=none;endFill=0;rounded=0;entryX=0;entryY=0;entryDx=0;entryDy=0;startArrow=none;startFill=0;" edge="1" parent="1" target="mPiWdBAjLxL3O_C_GbBa-46">
          <mxGeometry width="100" height="100" relative="1" as="geometry">
            <mxPoint x="410" y="160" as="sourcePoint" />
            <mxPoint x="240" y="-272" as="targetPoint" />
            <Array as="points">
              <mxPoint x="410" y="-280" />
            </Array>
          </mxGeometry>
        </mxCell>
        <mxCell id="mPiWdBAjLxL3O_C_GbBa-50" value="(1,0)" style="text;html=1;align=center;verticalAlign=middle;whiteSpace=wrap;rounded=0;" vertex="1" parent="1">
          <mxGeometry x="215" y="-320" width="60" height="30" as="geometry" />
        </mxCell>
        <mxCell id="mPiWdBAjLxL3O_C_GbBa-51" value="(1,0)" style="text;html=1;align=center;verticalAlign=middle;whiteSpace=wrap;rounded=0;" vertex="1" parent="1">
          <mxGeometry x="444" y="-310" width="60" height="30" as="geometry" />
        </mxCell>
        <mxCell id="mPiWdBAjLxL3O_C_GbBa-52" value="(1,1)" style="text;html=1;align=center;verticalAlign=middle;whiteSpace=wrap;rounded=0;" vertex="1" parent="1">
          <mxGeometry x="395" y="130" width="60" height="30" as="geometry" />
        </mxCell>
        <mxCell id="mPiWdBAjLxL3O_C_GbBa-53" value="(1,1)" style="text;html=1;align=center;verticalAlign=middle;whiteSpace=wrap;rounded=0;" vertex="1" parent="1">
          <mxGeometry x="355" y="130" width="60" height="30" as="geometry" />
        </mxCell>
        <mxCell id="cd35pqhOm4pV_w4t5kpb-2" value="" style="fontSize=12;html=1;endArrow=none;endFill=0;rounded=0;entryX=0;entryY=0;entryDx=0;entryDy=0;" edge="1" parent="1" target="mPiWdBAjLxL3O_C_GbBa-44">
          <mxGeometry width="100" height="100" relative="1" as="geometry">
            <mxPoint x="-120" y="-280" as="sourcePoint" />
            <mxPoint x="200" y="-250" as="targetPoint" />
          </mxGeometry>
        </mxCell>
        <mxCell id="cd35pqhOm4pV_w4t5kpb-3" value="" style="fontSize=12;html=1;endArrow=none;endFill=0;rounded=0;entryX=0.5;entryY=0;entryDx=0;entryDy=0;exitX=0.5;exitY=0;exitDx=0;exitDy=0;" edge="1" parent="1" source="GUfL9EUCw7rr8f97CWck-61" target="mPiWdBAjLxL3O_C_GbBa-45">
          <mxGeometry width="100" height="100" relative="1" as="geometry">
            <mxPoint x="430" y="-390" as="sourcePoint" />
            <mxPoint x="560" y="-390" as="targetPoint" />
            <Array as="points">
              <mxPoint x="-215" y="-400" />
              <mxPoint x="592" y="-400" />
            </Array>
          </mxGeometry>
        </mxCell>
        <mxCell id="cd35pqhOm4pV_w4t5kpb-4" value="(1,1)" style="text;html=1;align=center;verticalAlign=middle;whiteSpace=wrap;rounded=0;" vertex="1" parent="1">
          <mxGeometry x="-120" y="-310" width="60" height="30" as="geometry" />
        </mxCell>
        <mxCell id="cd35pqhOm4pV_w4t5kpb-5" value="(1,1)" style="text;html=1;align=center;verticalAlign=middle;whiteSpace=wrap;rounded=0;" vertex="1" parent="1">
          <mxGeometry x="-230" y="-380" width="60" height="30" as="geometry" />
        </mxCell>
        <mxCell id="cd35pqhOm4pV_w4t5kpb-6" value="(n,0)" style="text;html=1;align=center;verticalAlign=middle;whiteSpace=wrap;rounded=0;" vertex="1" parent="1">
          <mxGeometry x="-40" y="-285" width="60" height="30" as="geometry" />
        </mxCell>
        <mxCell id="cd35pqhOm4pV_w4t5kpb-7" value="(n,0)" style="text;html=1;align=center;verticalAlign=middle;whiteSpace=wrap;rounded=0;" vertex="1" parent="1">
          <mxGeometry x="604" y="-365" width="60" height="30" as="geometry" />
        </mxCell>
        <mxCell id="cd35pqhOm4pV_w4t5kpb-9" value="(1,1)" style="text;html=1;align=center;verticalAlign=middle;whiteSpace=wrap;rounded=0;" vertex="1" parent="1">
          <mxGeometry x="1170" y="610" width="60" height="30" as="geometry" />
        </mxCell>
        <mxCell id="e-fOe3J48HMXZfetPhPc-4" value="Endereco(copia)" style="whiteSpace=wrap;html=1;align=center;" vertex="1" parent="1">
          <mxGeometry x="1135" y="695" width="100" height="40" as="geometry" />
        </mxCell>
        <mxCell id="e-fOe3J48HMXZfetPhPc-5" value="Email(copia)" style="whiteSpace=wrap;html=1;align=center;" vertex="1" parent="1">
          <mxGeometry x="1135" y="780" width="100" height="40" as="geometry" />
        </mxCell>
        <mxCell id="e-fOe3J48HMXZfetPhPc-6" value="Fone(copia)" style="whiteSpace=wrap;html=1;align=center;" vertex="1" parent="1">
          <mxGeometry x="1135" y="870" width="100" height="40" as="geometry" />
        </mxCell>
        <mxCell id="etJbJnDLmHVPrKbSuANf-1" value="" style="fontSize=12;html=1;endArrow=none;endFill=0;rounded=0;entryX=0.5;entryY=0;entryDx=0;entryDy=0;startArrow=none;startFill=0;exitX=0.908;exitY=1.011;exitDx=0;exitDy=0;exitPerimeter=0;" edge="1" parent="1" source="GUfL9EUCw7rr8f97CWck-2" target="e-fOe3J48HMXZfetPhPc-4">
          <mxGeometry width="100" height="100" relative="1" as="geometry">
            <mxPoint x="1200" y="590" as="sourcePoint" />
            <mxPoint x="1255" y="663" as="targetPoint" />
            <Array as="points" />
          </mxGeometry>
        </mxCell>
        <mxCell id="etJbJnDLmHVPrKbSuANf-3" value="(1,1)" style="text;html=1;align=center;verticalAlign=middle;whiteSpace=wrap;rounded=0;" vertex="1" parent="1">
          <mxGeometry x="1175" y="665" width="60" height="30" as="geometry" />
        </mxCell>
        <mxCell id="etJbJnDLmHVPrKbSuANf-6" value="" style="fontSize=12;html=1;endArrow=none;endFill=0;rounded=0;entryX=1;entryY=0.5;entryDx=0;entryDy=0;startArrow=none;startFill=0;exitX=1.014;exitY=0.811;exitDx=0;exitDy=0;exitPerimeter=0;" edge="1" parent="1" source="GUfL9EUCw7rr8f97CWck-2" target="e-fOe3J48HMXZfetPhPc-5">
          <mxGeometry width="100" height="100" relative="1" as="geometry">
            <mxPoint x="1271" y="643.5" as="sourcePoint" />
            <mxPoint x="1272" y="716.5" as="targetPoint" />
            <Array as="points">
              <mxPoint x="1250" y="590" />
              <mxPoint x="1250" y="800" />
            </Array>
          </mxGeometry>
        </mxCell>
        <mxCell id="etJbJnDLmHVPrKbSuANf-7" value="" style="fontSize=12;html=1;endArrow=none;endFill=0;rounded=0;entryX=1;entryY=0.5;entryDx=0;entryDy=0;startArrow=none;startFill=0;exitX=1;exitY=0.5;exitDx=0;exitDy=0;" edge="1" parent="1" source="GUfL9EUCw7rr8f97CWck-2" target="e-fOe3J48HMXZfetPhPc-6">
          <mxGeometry width="100" height="100" relative="1" as="geometry">
            <mxPoint x="1235" y="540" as="sourcePoint" />
            <mxPoint x="1268" y="750" as="targetPoint" />
            <Array as="points">
              <mxPoint x="1283" y="540" />
              <mxPoint x="1283" y="890" />
            </Array>
          </mxGeometry>
        </mxCell>
        <mxCell id="etJbJnDLmHVPrKbSuANf-9" value="(1,1)" style="text;html=1;align=center;verticalAlign=middle;whiteSpace=wrap;rounded=0;" vertex="1" parent="1">
          <mxGeometry x="1225" y="795" width="60" height="30" as="geometry" />
        </mxCell>
        <mxCell id="etJbJnDLmHVPrKbSuANf-10" value="(1,1)" style="text;html=1;align=center;verticalAlign=middle;whiteSpace=wrap;rounded=0;" vertex="1" parent="1">
          <mxGeometry x="1220" y="890" width="60" height="30" as="geometry" />
        </mxCell>
        <mxCell id="etJbJnDLmHVPrKbSuANf-11" value="(1,1)" style="text;html=1;align=center;verticalAlign=middle;whiteSpace=wrap;rounded=0;" vertex="1" parent="1">
          <mxGeometry x="1190" y="560" width="60" height="30" as="geometry" />
        </mxCell>
        <mxCell id="etJbJnDLmHVPrKbSuANf-12" value="(1,1)" style="text;html=1;align=center;verticalAlign=middle;whiteSpace=wrap;rounded=0;" vertex="1" parent="1">
          <mxGeometry x="1190" y="510" width="60" height="30" as="geometry" />
        </mxCell>
        <mxCell id="etJbJnDLmHVPrKbSuANf-13" value="" style="fontSize=12;html=1;endArrow=none;endFill=0;rounded=0;entryX=-0.007;entryY=0.621;entryDx=0;entryDy=0;startArrow=none;startFill=0;entryPerimeter=0;" edge="1" parent="1" target="e-fOe3J48HMXZfetPhPc-4">
          <mxGeometry width="100" height="100" relative="1" as="geometry">
            <mxPoint x="1070" y="720" as="sourcePoint" />
            <mxPoint x="1125" y="795" as="targetPoint" />
            <Array as="points" />
          </mxGeometry>
        </mxCell>
        <mxCell id="etJbJnDLmHVPrKbSuANf-15" value="" style="fontSize=12;html=1;endArrow=none;endFill=0;rounded=0;entryX=0;entryY=0.5;entryDx=0;entryDy=0;startArrow=none;startFill=0;" edge="1" parent="1" target="e-fOe3J48HMXZfetPhPc-5">
          <mxGeometry width="100" height="100" relative="1" as="geometry">
            <mxPoint x="1070" y="800" as="sourcePoint" />
            <mxPoint x="1134" y="800" as="targetPoint" />
            <Array as="points" />
          </mxGeometry>
        </mxCell>
        <mxCell id="etJbJnDLmHVPrKbSuANf-16" value="" style="fontSize=12;html=1;endArrow=none;endFill=0;rounded=0;startArrow=none;startFill=0;exitX=1.002;exitY=0.792;exitDx=0;exitDy=0;exitPerimeter=0;" edge="1" parent="1" source="GUfL9EUCw7rr8f97CWck-17" target="e-fOe3J48HMXZfetPhPc-6">
          <mxGeometry width="100" height="100" relative="1" as="geometry">
            <mxPoint x="1070" y="890" as="sourcePoint" />
            <mxPoint x="1134" y="890" as="targetPoint" />
            <Array as="points" />
          </mxGeometry>
        </mxCell>
        <mxCell id="etJbJnDLmHVPrKbSuANf-17" value="(1,1)" style="text;html=1;align=center;verticalAlign=middle;whiteSpace=wrap;rounded=0;" vertex="1" parent="1">
          <mxGeometry x="1115" y="705" width="15" height="5" as="geometry" />
        </mxCell>
        <mxCell id="etJbJnDLmHVPrKbSuANf-18" value="(1,1)" style="text;html=1;align=center;verticalAlign=middle;whiteSpace=wrap;rounded=0;" vertex="1" parent="1">
          <mxGeometry x="1115" y="785" width="15" height="5" as="geometry" />
        </mxCell>
        <mxCell id="etJbJnDLmHVPrKbSuANf-19" value="(1,1)" style="text;html=1;align=center;verticalAlign=middle;whiteSpace=wrap;rounded=0;" vertex="1" parent="1">
          <mxGeometry x="1115" y="875" width="15" height="5" as="geometry" />
        </mxCell>
        <mxCell id="etJbJnDLmHVPrKbSuANf-21" value="(1,1)" style="text;html=1;align=center;verticalAlign=middle;whiteSpace=wrap;rounded=0;" vertex="1" parent="1">
          <mxGeometry x="1055" y="720" width="60" height="30" as="geometry" />
        </mxCell>
        <mxCell id="etJbJnDLmHVPrKbSuANf-22" value="(1,1)" style="text;html=1;align=center;verticalAlign=middle;whiteSpace=wrap;rounded=0;" vertex="1" parent="1">
          <mxGeometry x="1055" y="790" width="60" height="30" as="geometry" />
        </mxCell>
        <mxCell id="etJbJnDLmHVPrKbSuANf-23" value="(1,1)" style="text;html=1;align=center;verticalAlign=middle;whiteSpace=wrap;rounded=0;" vertex="1" parent="1">
          <mxGeometry x="1055" y="890" width="60" height="30" as="geometry" />
        </mxCell>
        <mxCell id="etJbJnDLmHVPrKbSuANf-26" value="CÃ³pias de Endereco, Email e Fone estÃ£o aqui para representar as entidades jÃ¡ criadas, facilitando a visualizaÃ§Ã£o" style="shape=note;size=20;whiteSpace=wrap;html=1;" vertex="1" parent="1">
          <mxGeometry x="1135" y="940" width="105" height="130" as="geometry" />
        </mxCell>
      </root>
    </mxGraphModel>
  </diagram>
</mxfile>
